<svg width="429" height="279" viewBox="0 0 429 279" fill="none" xmlns="http://www.w3.org/2000/svg">
<path d="M88.5522 120.94C66.8337 121.038 49.1558 121.352 49.1558 121.352C49.1558 121.352 70.1688 94.1444 88.4734 104.224C106.778 114.304 127.805 120.997 127.805 120.997C127.805 120.997 110.271 120.842 88.5522 120.94Z" fill="#F2F2F2"/>
<path d="M331.579 129.274C334.047 129.274 336.048 127.303 336.048 124.872C336.048 122.441 334.047 120.471 331.579 120.471C329.111 120.471 327.11 122.441 327.11 124.872C327.11 127.303 329.111 129.274 331.579 129.274Z" fill="#FF6584"/>
<path d="M298.501 194.695L332.452 156.295L333.499 157.193L299.549 195.594L298.501 194.695Z" fill="#3F3D56"/>
<path d="M333.366 163.607C337.315 163.607 340.516 160.454 340.516 156.564C340.516 152.675 337.315 149.521 333.366 149.521C329.417 149.521 326.216 152.675 326.216 156.564C326.216 160.454 329.417 163.607 333.366 163.607Z" fill="#3F3D56"/>
<path d="M312.172 180.333C312.172 180.333 325.9 163.103 308.342 151.282L312.172 180.333Z" fill="#3F3D56"/>
<path d="M84.5286 210.62C109.686 256.565 163.079 276.289 163.079 276.289C163.079 276.289 175.683 221.52 150.526 175.575C125.369 129.63 71.9761 109.907 71.9761 109.907C71.9761 109.907 59.3713 164.676 84.5286 210.62Z" fill="#3F3D56"/>
<path d="M101.548 195.703C146.96 222.691 164.449 276.295 164.449 276.295C164.449 276.295 108.312 286.145 62.9006 259.157C17.4893 232.17 0 178.565 0 178.565C0 178.565 56.1369 168.716 101.548 195.703Z" fill="#111B47"/>
<path d="M281.703 195.941C236.045 222.56 218.074 276.068 218.074 276.068C218.074 276.068 274.129 286.419 319.787 259.8C365.445 233.182 383.416 179.673 383.416 179.673C383.416 179.673 327.361 169.323 281.703 195.941Z" fill="#3F3D56"/>
<path d="M298.277 212.219C272.712 257.921 219.152 277.169 219.152 277.169C219.152 277.169 207.042 222.32 232.607 176.618C258.172 130.916 311.732 111.668 311.732 111.668C311.732 111.668 323.842 166.517 298.277 212.219Z" fill="#111B47"/>
<path d="M205.455 87.0543C200.079 82.2629 199.326 74.211 203.723 68.5322C203.442 68.7916 203.168 69.0609 202.905 69.3472C197.741 74.9756 198.185 83.6638 203.896 88.7528C209.608 93.8419 218.425 93.4046 223.589 87.7761C223.851 87.4898 224.096 87.1938 224.33 86.8925C219.037 91.7739 210.832 91.8442 205.455 87.0543Z" fill="#2F2E41"/>
<path d="M192.602 96.7026C208.644 96.7026 221.649 83.8932 221.649 68.092C221.649 52.2908 208.644 39.4814 192.602 39.4814C176.56 39.4814 163.555 52.2908 163.555 68.092C163.555 83.8932 176.56 96.7026 192.602 96.7026Z" fill="#2F2E41"/>
<path d="M184.324 104.652L185.195 102.447L169.343 115.511L150.183 126.03C150.183 126.03 140.428 89.383 139.731 88.7044C139.035 88.0257 126.493 62.2373 120.919 74.4529C115.345 86.6684 131.719 93.7942 131.719 93.7942C131.719 93.7942 132.241 138.415 148.963 138.076C165.685 137.736 186.414 122.976 186.762 121.619C187.111 120.261 184.324 104.652 184.324 104.652Z" fill="#FFB8B8"/>
<path d="M189.027 97.5827C198.652 97.5827 206.455 89.897 206.455 80.4163C206.455 70.9356 198.652 63.25 189.027 63.25C179.402 63.25 171.599 70.9356 171.599 80.4163C171.599 89.897 179.402 97.5827 189.027 97.5827Z" fill="#FFB8B8"/>
<path d="M192.047 92.9605C192.047 92.9605 196.573 98.7426 195.18 99.4228C193.788 100.103 185.78 100.443 180.907 106.225C176.033 112.007 186.825 126.633 186.825 126.633L227.905 99.763L211.194 94.321C211.194 94.321 199.706 88.1987 200.054 81.7363L192.047 92.9605Z" fill="#FFB8B8"/>
<path d="M247.567 278.049H201.423C198.809 259.265 197.601 242.051 197.601 242.051C197.601 242.051 196.926 259.367 195.132 278.049H135.849C144.253 222.729 184.092 162.74 184.092 162.74C184.092 162.74 184.438 154.568 185.478 153.206C186.518 151.847 179.59 151.507 176.47 141.295C174.569 135.062 176.278 130.983 177.904 128.754C178.462 127.951 179.148 127.242 179.937 126.655C179.937 126.655 180.63 119.51 179.937 118.488C179.848 118.354 180.532 117.885 181.796 117.171C182.85 116.573 184.307 115.804 186.05 114.92C196.032 109.832 215.354 100.832 221.973 97.7656C223.425 97.0889 224.268 96.7021 224.268 96.7021L236.044 100.786C245.394 103.847 245.394 123.253 245.394 123.253L244.864 124.045L230.732 145.084L222.535 157.294C224.615 158.652 220.46 167.165 220.46 167.165C220.46 167.165 226.38 175.525 231.196 188.287C233.919 195.39 235.776 202.785 236.728 210.317C237.335 215.198 237.454 220.126 237.084 225.031C235.8 241.43 241.506 261.36 247.567 278.049Z" fill="#2F2E41"/>
<path d="M235.904 102.367C235.136 101.936 234.217 101.866 233.392 102.173C232.567 102.481 231.919 103.135 231.623 103.962C230.592 106.786 229.548 112.674 229.92 124.915C230.605 147.427 230.947 162.777 230.947 162.777V196.886C230.947 196.886 215.885 229.631 224.101 229.631C232.316 229.631 238.136 203.708 238.136 203.708C238.136 203.708 245.667 164.482 243.27 157.66C243.27 157.66 250.027 110.532 235.904 102.367Z" fill="#FFB8B8"/>
<path d="M187.239 75.5746C195.384 75.5746 201.986 71.0421 201.986 65.4509C201.986 59.8597 195.384 55.3271 187.239 55.3271C179.095 55.3271 172.493 59.8597 172.493 65.4509C172.493 71.0421 179.095 75.5746 187.239 75.5746Z" fill="#2F2E41"/>
<path d="M210.923 57.0874C218.821 57.0874 225.223 50.7812 225.223 43.0022C225.223 35.2231 218.821 28.917 210.923 28.917C203.026 28.917 196.624 35.2231 196.624 43.0022C196.624 50.7812 203.026 57.0874 210.923 57.0874Z" fill="#2F2E41"/>
<path d="M220.755 53.0245C213.32 53.0235 207.127 47.5185 206.508 40.3613C206.476 40.7413 206.455 41.1245 206.455 41.5125C206.455 49.142 212.857 55.3269 220.755 55.3269C228.653 55.3269 235.055 49.142 235.055 41.5125C235.055 41.1245 235.034 40.7413 235.002 40.3613C234.383 47.5186 228.19 53.0235 220.755 53.0245Z" fill="#2F2E41"/>
<path d="M205.909 77.3515C206.56 77.1983 206.8 75.8858 206.444 74.4199C206.089 72.9539 205.273 71.8898 204.622 72.0429C203.971 72.1961 203.731 73.5087 204.087 74.9746C204.442 76.4405 205.258 77.5047 205.909 77.3515Z" fill="#FFB8B8"/>
<path d="M205.561 77.3349C206.055 77.3349 206.455 76.9407 206.455 76.4545C206.455 75.9684 206.055 75.5742 205.561 75.5742C205.068 75.5742 204.667 75.9684 204.667 76.4545C204.667 76.9407 205.068 77.3349 205.561 77.3349Z" fill="#F2F2F2"/>
<path fill-rule="evenodd" clip-rule="evenodd" d="M35.7495 129.714C35.7495 132.875 38.3504 135.436 41.5588 135.436C44.7658 135.433 47.3646 132.873 47.3682 129.714C47.3682 126.554 44.7673 123.992 41.5588 123.992C38.3504 123.992 35.7495 126.554 35.7495 129.714ZM36.7182 129.714C36.7182 127.081 38.8856 124.946 41.5593 124.946C44.2317 124.949 46.3973 127.082 46.4004 129.714C46.4004 132.348 44.2329 134.483 41.5593 134.483C38.8856 134.483 36.7182 132.348 36.7182 129.714Z" fill="#3F3D56"/>
<path fill-rule="evenodd" clip-rule="evenodd" d="M271.698 94.9417H284.21V82.6172H271.698V94.9417ZM283.248 93.9937H272.66V83.5652H283.248V93.9937Z" fill="#3F3D56"/>
<path d="M389.744 158.794C368.026 158.891 350.348 159.205 350.348 159.205C350.348 159.205 371.361 131.998 389.665 142.078C407.97 152.158 428.997 158.851 428.997 158.851C428.997 158.851 411.463 158.696 389.744 158.794Z" fill="#F2F2F2"/>
<path d="M322.713 66.3599C300.995 66.4578 283.317 66.7714 283.317 66.7714C283.317 66.7714 304.33 39.5643 322.634 49.6444C340.939 59.7244 361.966 66.4171 361.966 66.4171C361.966 66.4171 344.432 66.2621 322.713 66.3599Z" fill="#F2F2F2"/>
<path d="M117.4 78.3321L67.2417 52.8274C63.8165 51.0858 62.4677 46.9282 64.2289 43.5411L76.0455 20.8171C76.3923 20.1502 77.0011 19.6536 77.7291 19.4437L117.263 8.04472C120.546 7.09833 124.003 8.85639 125.134 12.0469L138.123 48.6867C138.779 50.5365 138.637 52.5715 137.731 54.3147L126.791 75.3528C125.945 76.9794 124.48 78.207 122.719 78.7657C120.958 79.3244 119.045 79.1684 117.4 78.3321Z" fill="#F2F2F2"/>
<path opacity="0.1" d="M119.178 69.9196L68.6447 48.5796C67.0164 47.7514 68.5432 49.0244 69.3805 47.4138L75.7329 21.875L137.637 53.3619L121.987 72.5032C121.15 74.1138 120.806 70.7478 119.178 69.9196Z" fill="black"/>
<path d="M77.7983 55.4136C73.7651 53.3708 72.1917 48.4659 74.2839 44.4582L90.4152 13.5584C92.5074 9.55071 97.473 7.9578 101.506 10.0006L133.006 25.955C137.039 27.9978 138.613 32.9027 136.52 36.9104L120.389 67.8102C118.297 71.8179 113.331 73.4108 109.298 71.368L77.7983 55.4136Z" fill="#111B47"/>
<path opacity="0.1" d="M129.593 49.6803L116.596 74.6942L70.606 51.2899L83.6027 26.2764L100.883 48.9779L129.593 49.6803Z" fill="black"/>
<path d="M100.324 50.623L78.0128 21.5242C77.7323 21.1584 77.28 20.96 76.8154 20.999C76.3509 21.038 75.9394 21.309 75.7262 21.7164L63.0302 45.9743C62.5172 46.9544 62.4215 48.0946 62.7642 49.144C63.1069 50.1934 63.8598 51.0661 64.8574 51.5701L120.173 79.5159C121.171 80.0199 122.331 80.1139 123.399 79.7773C124.467 79.4406 125.356 78.7008 125.869 77.7207L138.347 53.8784C138.607 53.3813 138.589 52.7877 138.299 52.307C138.008 51.8263 137.487 51.5261 136.918 51.5122L100.324 50.623Z" fill="#F2F2F2"/>
<path d="M95.999 12.4834L108.893 19.014L107.955 20.81L95.0614 14.2794L95.999 12.4834Z" fill="#F2F2F2"/>
<path d="M91.5415 18.498L129.832 37.892L129.297 38.9183L91.0057 19.5243L91.5415 18.498Z" fill="#F2F2F2"/>
<path d="M89.7334 21.9619L128.024 41.3559L127.488 42.3822L89.1976 22.9882L89.7334 21.9619Z" fill="#F2F2F2"/>
<path d="M87.9253 25.4258L126.216 44.8198L125.68 45.846L87.3895 26.4521L87.9253 25.4258Z" fill="#F2F2F2"/>
<path d="M101.059 10.678C102.578 7.76789 101.419 4.19786 98.4695 2.70415C95.5203 1.21044 91.898 2.35868 90.3788 5.26882C88.8595 8.17895 90.0187 11.749 92.9678 13.2427C95.9169 14.7364 99.5393 13.5882 101.059 10.678Z" fill="white"/>
<path fill-rule="evenodd" clip-rule="evenodd" d="M89.2736 4.56979C91.0799 1.11151 95.3919 -0.250389 98.9047 1.5279C102.408 3.31414 103.788 7.55027 101.995 11.0096C100.188 14.4678 95.8762 15.8297 92.3634 14.0514C88.8507 12.2731 87.4673 8.02807 89.2736 4.56979ZM91.0011 5.60792L92.5847 10.4673L101.476 7.66393L101.032 6.30094L93.5264 8.67157L92.3856 5.17065L91.0011 5.60792Z" fill="#57B894"/>
</svg>
