<svg width="384" height="257" viewBox="0 0 384 257" fill="none" xmlns="http://www.w3.org/2000/svg">
<path d="M143.762 250.124C212.224 250.124 267.724 197.079 267.724 131.644C267.724 66.2093 212.224 13.1641 143.762 13.1641C75.2991 13.1641 19.7993 66.2093 19.7993 131.644C19.7993 197.079 75.2991 250.124 143.762 250.124Z" fill="#F2F2F2"/>
<path d="M163.654 149.711C136.359 189.926 143.838 241.074 143.838 241.074C143.838 241.074 195.571 227.021 222.867 186.806C250.162 146.591 242.683 95.4424 242.683 95.4424C242.683 95.4424 190.95 109.495 163.654 149.711Z" fill="#3F3D56"/>
<path d="M143.754 240.251C143.754 240.251 143.085 240.149 141.855 239.913C140.874 239.723 139.523 239.453 137.873 239.081C123.126 235.773 83.9195 224.592 58.2863 195.196C26.2041 158.387 27.555 106.961 27.555 106.961C27.555 106.961 76.6099 114.543 108.934 147.599C110.335 149.019 111.698 150.491 113.022 152.015C140.938 184.043 143.54 227.136 143.747 237.789C143.775 239.385 143.754 240.251 143.754 240.251Z" fill="#222F65"/>
<path fill-rule="evenodd" clip-rule="evenodd" d="M123.869 149.711C151.164 189.926 143.685 241.074 143.685 241.074C143.685 241.074 91.9521 227.021 64.6569 186.806C37.3617 146.591 44.8406 95.4424 44.8406 95.4424C44.8406 95.4424 96.5738 109.495 123.869 149.711Z" stroke="#3F3D56" stroke-width="2"/>
<path opacity="0.1" d="M143.762 238.651C143.039 239.486 142.401 240.199 141.876 240.784C140.714 242.053 140.054 242.719 140.054 242.719C140.054 242.719 139.253 241.755 137.907 239.948C130.513 230.074 106.732 194.964 108.567 154.408C108.667 152.283 108.83 150.18 109.057 148.1C110.453 149.526 111.812 151.004 113.132 152.534C140.962 184.69 143.556 227.955 143.762 238.651Z" fill="black"/>
<path d="M184.982 157.382C182.805 205.322 145.416 242.719 145.416 242.719C145.416 242.719 111.556 202.391 113.732 154.451C115.909 106.511 153.298 69.1133 153.298 69.1133C153.298 69.1133 187.158 109.442 184.982 157.382Z" fill="#222F65"/>
<path d="M145.483 241.074L153.231 70.7588" stroke="#3F3D56" stroke-width="2"/>
<path d="M191.539 256.707C297.323 256.707 383.078 251.55 383.078 245.188C383.078 238.826 297.323 233.669 191.539 233.669C85.7549 233.669 0 238.826 0 245.188C0 251.55 85.7549 256.707 191.539 256.707Z" fill="#3F3D56"/>
<path d="M31.8512 241.074V194.998V241.074Z" fill="#3F3D56"/>
<path d="M31.8512 241.074V194.998" stroke="#3F3D56" stroke-width="2"/>
<path d="M31.8511 201.58C35.6546 201.58 38.7379 198.633 38.7379 194.998C38.7379 191.363 35.6546 188.416 31.8511 188.416C28.0477 188.416 24.9644 191.363 24.9644 194.998C24.9644 198.633 28.0477 201.58 31.8511 201.58Z" fill="#3F3D56"/>
<path d="M31.8513 223.795C31.8513 223.795 30.8903 203.529 11.1909 205.885L31.8513 223.795Z" fill="#3F3D56"/>
<path d="M196.274 166.201V37.8477V166.201Z" fill="#3F3D56"/>
<path d="M196.274 166.201V37.8477" stroke="#3F3D56" stroke-width="2"/>
<path d="M196.274 47.7212C201.503 47.7212 205.743 43.6691 205.743 38.6707C205.743 33.6722 201.503 29.6201 196.274 29.6201C191.044 29.6201 186.804 33.6722 186.804 38.6707C186.804 43.6691 191.044 47.7212 196.274 47.7212Z" fill="#3F3D56"/>
<path d="M196.274 74.8728C196.274 74.8728 194.952 47.237 167.866 50.4493L196.274 74.8728Z" fill="#3F3D56"/>
<path d="M308.43 95.4424L300.358 109.952C300.358 109.952 241.991 120.612 249.442 137.194C256.893 153.777 265.276 178.058 269.622 177.466C273.969 176.873 297.874 163.844 298.805 159.995C299.737 156.145 277.384 138.083 277.384 138.083L314.328 131.272C314.328 131.272 319.606 154.961 312.776 171.247C305.946 187.533 301.91 231.654 306.567 232.246C311.224 232.839 323.021 236.392 328.299 233.135C333.577 229.878 336.06 158.514 336.06 158.514C336.06 158.514 347.237 111.729 340.407 106.399C333.577 101.069 308.43 95.4424 308.43 95.4424Z" fill="#2F2E41"/>
<path d="M321.047 225.652C321.047 225.652 313.834 222.012 312.315 224.924C312.315 224.924 313.454 233.66 308.899 234.752C304.343 235.844 302.445 243.488 308.899 244.216C315.352 244.944 319.528 242.76 321.806 242.76C324.083 242.76 321.806 235.116 321.806 235.116L321.047 225.652Z" fill="#2F2E41"/>
<path d="M286.632 166.065C286.632 166.065 278.774 163.958 277.929 167.123C277.929 167.123 280.967 175.46 276.75 177.455C272.533 179.451 272.359 187.333 278.833 186.738C285.308 186.143 288.913 183.153 291.141 182.691C293.37 182.229 289.459 175.194 289.459 175.194L286.632 166.065Z" fill="#2F2E41"/>
<path d="M325.741 44.314C325.741 44.314 326.048 55.3638 323.901 56.2598C321.755 57.1557 335.86 62.5313 335.86 62.5313L338.314 58.3503C338.314 58.3503 335.554 43.418 336.167 42.2235C336.78 41.0289 325.741 44.314 325.741 44.314Z" fill="#9F616A"/>
<path d="M330.566 46.8985C341.025 46.8985 349.504 38.7943 349.504 28.7974C349.504 18.8004 341.025 10.6963 330.566 10.6963C320.106 10.6963 311.627 18.8004 311.627 28.7974C311.627 38.7943 320.106 46.8985 330.566 46.8985Z" fill="#2F2E41"/>
<path d="M332.288 18.9242C336.567 18.9242 340.035 15.6089 340.035 11.5193C340.035 7.42959 336.567 4.11426 332.288 4.11426C328.009 4.11426 324.54 7.42959 324.54 11.5193C324.54 15.6089 328.009 18.9242 332.288 18.9242Z" fill="#2F2E41"/>
<path d="M321.86 7.40499C321.86 3.61399 324.874 0.435285 328.844 0.0400388C328.574 0.0134302 328.303 6.61564e-05 328.032 0C323.726 0 320.235 3.31533 320.235 7.40499C320.235 11.4947 323.726 14.81 328.032 14.81C328.303 14.8099 328.574 14.7966 328.844 14.77C324.874 14.3747 321.86 11.196 321.86 7.40499Z" fill="#2F2E41"/>
<path d="M329.705 50.1892C336.837 50.1892 342.618 44.6636 342.618 37.8475C342.618 31.0314 336.837 25.5059 329.705 25.5059C322.574 25.5059 316.792 31.0314 316.792 37.8475C316.792 44.6636 322.574 50.1892 329.705 50.1892Z" fill="#9F616A"/>
<path d="M339.39 54.1464C339.39 54.1464 328.239 57.3884 322.663 54.1464C317.087 50.9044 303.767 60.3357 301.599 64.4619C299.43 68.5881 309.653 72.7143 309.653 72.7143C309.653 72.7143 306.734 80.6824 307.329 84.6509C307.949 88.7771 306.865 97.1768 306.865 97.1768C306.865 97.1768 334.231 114.332 340.319 106.608C341.249 105.429 348.993 77.7247 348.993 77.7247L359.835 67.4092C359.835 67.4092 353.02 57.9779 348.993 57.0937C344.966 56.2095 339.39 54.1464 339.39 54.1464Z" fill="#D0CDE1"/>
<path d="M264.227 114.366C264.227 114.366 243.349 124.929 247.647 127.947C251.945 130.965 269.446 116.177 269.446 116.177L264.227 114.366Z" fill="#9F616A"/>
<path d="M346.855 106.91C346.855 106.91 337.389 100.561 335.865 103.736C334.341 106.91 346.229 114.058 348.732 111.261C351.235 108.464 346.855 106.91 346.855 106.91Z" fill="#9F616A"/>
<path d="M354.471 63.3535L359.991 66.635C359.991 66.635 378.7 91.6936 372.259 97.3616C365.819 103.03 349.257 114.366 349.257 114.366C349.257 114.366 343.736 106.609 345.576 106.311C347.416 106.013 362.138 94.0802 362.138 94.0802L349.257 70.8114L354.471 63.3535Z" fill="#D0CDE1"/>
<path d="M304.895 62.5312L300.878 64.0209L290.371 82.1947L262.559 114.669C262.559 114.669 266.267 120.33 269.358 119.138C272.448 117.946 295.625 92.9202 295.625 92.9202L310.767 70.2774L304.895 62.5312Z" fill="#D0CDE1"/>
<path d="M330.996 30.4428C338.366 30.4428 344.34 27.1275 344.34 23.0378C344.34 18.9481 338.366 15.6328 330.996 15.6328C323.627 15.6328 317.653 18.9481 317.653 23.0378C317.653 27.1275 323.627 30.4428 330.996 30.4428Z" fill="#2F2E41"/>
<rect x="242.759" y="183.479" width="61.1203" height="58.4172" fill="#222F65"/>
<path fill-rule="evenodd" clip-rule="evenodd" d="M284.826 224.132C291.226 224.132 295.271 218.93 295.271 210.676C295.271 199.448 286.272 191.707 273.286 191.707C259.775 191.707 250.507 200.417 250.507 213.104C250.507 226.103 259.588 234.48 273.775 234.491C276.234 234.503 278.686 234.248 281.084 233.733C282.058 233.509 282.665 232.583 282.453 231.648C282.241 230.713 281.287 230.111 280.303 230.291C278.21 230.644 276.088 230.815 273.962 230.804C262.293 230.804 254.797 223.965 254.797 213.249C254.797 202.768 262.374 195.361 273.006 195.361C283.754 195.361 291.028 201.565 291.028 210.843C291.028 216.658 288.977 220.4 285.747 220.4C283.882 220.4 282.845 219.32 282.845 217.526V203.124H278.193V206.221H277.727C276.655 203.96 274.218 202.578 271.351 202.578C265.767 202.578 261.943 206.911 261.943 213.138C261.943 219.621 265.743 223.976 271.432 223.976C274.626 223.976 277.004 222.561 278.159 219.977H278.625C279.056 222.461 281.551 224.132 284.826 224.132ZM272.294 219.854C268.995 219.854 266.967 217.359 266.967 213.238C266.967 209.106 268.96 206.677 272.353 206.677C275.768 206.677 277.96 209.184 277.96 213.238C277.96 217.293 275.768 219.854 272.294 219.854Z" fill="white"/>
</svg>
