<svg width="169" height="59" viewBox="0 0 169 59" fill="none" xmlns="http://www.w3.org/2000/svg">
<path d="M31.1152 15.0625C31.0371 15.3359 31.0176 15.5117 31.0566 15.5898C31.0957 15.668 31.1152 15.7461 31.1152 15.8242C31.0762 16.0195 31.0371 16.2148 30.998 16.4102C30.998 16.5664 30.959 16.7422 30.8809 16.9375C30.7637 17.5234 30.627 18.1094 30.4707 18.6953C30.3145 19.2812 30.0801 19.8281 29.7676 20.3359C29.5332 20.6484 29.377 20.8828 29.2988 21.0391C29.2207 21.1953 29.1426 21.332 29.0645 21.4492C28.5176 22.1523 28.2051 22.6992 28.127 23.0898C27.9316 23.2852 27.7168 23.5 27.4824 23.7344C27.248 23.9297 26.9746 24.125 26.6621 24.3203C26.2715 24.5938 25.9199 24.8477 25.6074 25.082C25.334 25.2773 24.9824 25.3164 24.5527 25.1992C24.3574 25.3945 24.1426 25.5312 23.9082 25.6094C23.6738 25.6484 23.459 25.707 23.2637 25.7852C22.9512 25.9805 22.6973 26.1172 22.502 26.1953C22.3457 26.2344 22.1895 26.293 22.0332 26.3711C21.8379 26.4492 21.6816 26.5078 21.5645 26.5469C21.4473 26.5469 21.3496 26.5664 21.2715 26.6055C21.0762 26.8398 20.8809 26.957 20.6855 26.957C20.2559 27.1523 19.8848 27.3086 19.5723 27.4258C19.2598 27.543 18.9473 27.582 18.6348 27.543C18.2832 27.5039 18.0488 27.5039 17.9316 27.543C17.8145 27.582 17.7168 27.6211 17.6387 27.6602C17.0918 27.6992 16.6816 27.7578 16.4082 27.8359C16.1348 27.875 15.8613 27.8555 15.5879 27.7773C15.4316 27.8555 15.2754 27.9336 15.1191 28.0117C14.9629 28.0508 14.7871 28.0898 14.5918 28.1289C14.3965 28.207 14.2207 28.2266 14.0645 28.1875C13.9082 28.1484 13.6934 28.1289 13.4199 28.1289C12.9121 28.2461 12.5215 28.3047 12.248 28.3047C11.9746 28.2656 11.7402 28.2461 11.5449 28.2461C11.1152 28.2461 10.6074 28.2656 10.0215 28.3047C9.47461 28.3438 9.02539 28.4609 8.67383 28.6562C8.71289 29.3984 8.75195 30.1211 8.79102 30.8242C8.86914 31.5273 8.88867 32.2305 8.84961 32.9336C8.84961 33.1289 8.83008 33.3047 8.79102 33.4609C8.75195 33.5781 8.73242 33.7148 8.73242 33.8711C8.73242 34.3398 8.75195 34.7891 8.79102 35.2188C8.83008 35.6094 8.84961 36 8.84961 36.3906C8.84961 36.5859 8.83008 36.8008 8.79102 37.0352C8.75195 37.2305 8.73242 37.4453 8.73242 37.6797C8.73242 37.875 8.75195 38.0703 8.79102 38.2656C8.86914 38.4609 8.84961 38.6562 8.73242 38.8516C8.9668 39.3594 9.04492 39.9062 8.9668 40.4922C8.88867 41.0781 8.86914 41.6445 8.9082 42.1914C8.94727 42.3867 8.98633 42.543 9.02539 42.6602C9.06445 42.7383 9.08398 42.8359 9.08398 42.9531C9.16211 43.2656 9.16211 43.5781 9.08398 43.8906C9.04492 44.2031 9.04492 44.5352 9.08398 44.8867C8.77148 44.9648 8.40039 45.1016 7.9707 45.2969C7.58008 45.4531 7.16992 45.4531 6.74023 45.2969C6.19336 45.2188 5.70508 45.2383 5.27539 45.3555C4.88477 45.4727 4.49414 45.5703 4.10352 45.6484C3.51758 45.7266 2.93164 45.707 2.3457 45.5898C1.75977 45.4336 1.23242 45.2383 0.763672 45.0039C0.802734 44.7695 0.783203 44.5742 0.705078 44.418C0.626953 44.2227 0.587891 44.0469 0.587891 43.8906C0.626953 43.6953 0.666016 43.5586 0.705078 43.4805C0.744141 43.4023 0.802734 43.2852 0.880859 43.1289C0.802734 43.0117 0.802734 42.9141 0.880859 42.8359C0.958984 42.7188 0.998047 42.6016 0.998047 42.4844C1.03711 42.2891 1.03711 42.0938 0.998047 41.8984C0.958984 41.6641 0.939453 41.4492 0.939453 41.2539C0.939453 41.0977 0.958984 40.9414 0.998047 40.7852C1.07617 40.6289 1.11523 40.4727 1.11523 40.3164C1.11523 39.9648 1.07617 39.6133 0.998047 39.2617C0.919922 38.9102 0.880859 38.5586 0.880859 38.207C0.919922 38.0117 0.958984 37.8164 0.998047 37.6211C1.03711 37.4258 1.07617 37.2109 1.11523 36.9766C1.1543 36.8984 1.1543 36.8008 1.11523 36.6836C1.07617 36.5664 1.07617 36.4492 1.11523 36.332C1.23242 36.0195 1.27148 35.8047 1.23242 35.6875C1.23242 35.5703 1.23242 35.4727 1.23242 35.3945C1.23242 35.1992 1.23242 35.0234 1.23242 34.8672C1.27148 34.6719 1.29102 34.457 1.29102 34.2227C1.25195 33.7148 1.27148 33.3633 1.34961 33.168C1.4668 32.9336 1.52539 32.7188 1.52539 32.5234C1.52539 32.3281 1.48633 32.1523 1.4082 31.9961C1.36914 31.8398 1.31055 31.6836 1.23242 31.5273C1.19336 31.4102 1.1543 31.2148 1.11523 30.9414C1.07617 30.6289 1.05664 30.375 1.05664 30.1797C1.05664 29.9453 1.0957 29.75 1.17383 29.5938C1.25195 29.3984 1.29102 29.2031 1.29102 29.0078C1.21289 28.6953 1.17383 28.5 1.17383 28.4219C1.21289 28.3047 1.23242 28.207 1.23242 28.1289C1.1543 27.8945 1.13477 27.7578 1.17383 27.7188C1.21289 27.6406 1.23242 27.5625 1.23242 27.4844C1.19336 27.1719 1.19336 26.957 1.23242 26.8398C1.27148 26.6836 1.31055 26.5273 1.34961 26.3711C1.38867 26.2539 1.4082 26.1367 1.4082 26.0195C1.4082 25.8633 1.42773 25.7266 1.4668 25.6094C1.42773 25.375 1.42773 25.1016 1.4668 24.7891C1.50586 24.4766 1.50586 24.2227 1.4668 24.0273C1.4668 23.9492 1.44727 23.8516 1.4082 23.7344C1.36914 23.6172 1.33008 23.5 1.29102 23.3828C1.25195 23.1875 1.21289 22.8359 1.17383 22.3281C1.13477 21.7812 1.13477 21.332 1.17383 20.9805C1.13477 20.5898 1.13477 20.3164 1.17383 20.1602C1.25195 19.9648 1.29102 19.7695 1.29102 19.5742C1.29102 19.418 1.27148 19.2617 1.23242 19.1055C1.19336 18.9102 1.1543 18.7148 1.11523 18.5195C1.07617 18.207 1.05664 17.8945 1.05664 17.582C1.05664 17.2695 1.0957 16.9375 1.17383 16.5859C1.0957 16.1562 1.07617 15.8047 1.11523 15.5312C1.19336 15.2578 1.25195 14.9648 1.29102 14.6523C1.33008 14.457 1.31055 14.2031 1.23242 13.8906C1.1543 13.5781 1.19336 13.3242 1.34961 13.1289C1.1543 12.7773 1.03711 12.3086 0.998047 11.7227C0.958984 11.0977 0.998047 10.6289 1.11523 10.3164C0.958984 10.1211 0.880859 9.88672 0.880859 9.61328C0.880859 9.33984 0.880859 8.98828 0.880859 8.55859C0.880859 8.20703 0.861328 7.79688 0.822266 7.32812C0.822266 6.85938 0.919922 6.46875 1.11523 6.15625C0.919922 5.6875 0.783203 5.14062 0.705078 4.51562C0.666016 3.89063 0.744141 3.30469 0.939453 2.75781C1.29102 2.64062 1.68164 2.60156 2.11133 2.64062C2.58008 2.67969 3.08789 2.67969 3.63477 2.64062C4.37695 2.5625 5.09961 2.44531 5.80273 2.28906C6.50586 2.13281 7.24805 2.01563 8.0293 1.9375C8.41992 1.89844 8.79102 1.87891 9.14258 1.87891C9.5332 1.87891 9.92383 1.83984 10.3145 1.76172C10.8223 1.68359 11.291 1.625 11.7207 1.58594C12.1895 1.50781 12.7559 1.50781 13.4199 1.58594C13.7324 1.58594 13.9082 1.625 13.9473 1.70312C13.9863 1.74219 14.0254 1.76172 14.0645 1.76172C14.1426 1.80078 14.2793 1.80078 14.4746 1.76172C14.6699 1.68359 14.8652 1.66406 15.0605 1.70312C15.8418 1.78125 16.584 1.89844 17.2871 2.05469C18.0293 2.21094 18.7324 2.42578 19.3965 2.69922C19.6699 2.81641 19.8652 2.89453 19.9824 2.93359C20.0996 2.93359 20.1973 2.95313 20.2754 2.99219C20.627 3.07031 20.959 3.14844 21.2715 3.22656C21.584 3.30469 21.7793 3.36328 21.8574 3.40234C22.4434 3.59766 22.8535 3.77344 23.0879 3.92969C23.3223 4.08594 23.5566 4.24219 23.791 4.39844C24.0254 4.55469 24.2012 4.67187 24.3184 4.75C24.4746 4.78906 24.6113 4.84766 24.7285 4.92578C24.8457 5.00391 24.9629 5.10156 25.0801 5.21875C25.1973 5.33594 25.3145 5.43359 25.4316 5.51172C25.7051 5.70703 25.959 5.90234 26.1934 6.09766C26.4277 6.25391 26.7012 6.42969 27.0137 6.625C27.1309 6.70313 27.248 6.78125 27.3652 6.85938C27.5215 6.9375 27.6387 7.01562 27.7168 7.09375C27.9121 7.36719 28.0488 7.52344 28.127 7.5625C28.2051 7.5625 28.2637 7.58203 28.3027 7.62109C28.459 7.77734 28.6348 7.99219 28.8301 8.26562C29.0645 8.5 29.2207 8.71484 29.2988 8.91016C29.4551 9.22266 29.5527 9.4375 29.5918 9.55469C29.6699 9.63281 29.748 9.71094 29.8262 9.78906C30.0215 10.1406 30.1387 10.4336 30.1777 10.668C30.2168 10.9023 30.2754 11.1172 30.3535 11.3125C30.4316 11.5078 30.4902 11.6836 30.5293 11.8398C30.6074 11.9961 30.666 12.1719 30.7051 12.3672C30.7832 12.6016 30.8223 12.8359 30.8223 13.0703C30.8223 13.3047 30.8418 13.5391 30.8809 13.7734C30.9199 13.9688 30.959 14.1836 30.998 14.418C31.0762 14.6133 31.1152 14.8281 31.1152 15.0625ZM23.6738 14.8281C23.7129 14.3594 23.6543 13.9688 23.498 13.6562C23.3418 13.3437 23.2637 13.0117 23.2637 12.6602C23.1465 12.5039 23.0293 12.3672 22.9121 12.25C22.7949 12.0938 22.6973 11.957 22.6191 11.8398C22.4238 11.5273 22.209 11.2734 21.9746 11.0781C21.7793 10.8828 21.6035 10.6484 21.4473 10.375C21.2129 10.2188 21.0371 9.94531 20.9199 9.55469C20.6074 9.59375 20.373 9.53516 20.2168 9.37891C20.0996 9.22266 19.8848 9.18359 19.5723 9.26172C19.377 9.06641 19.1621 8.91016 18.9277 8.79297C18.6934 8.67578 18.4785 8.55859 18.2832 8.44141C17.8535 8.28516 17.4824 8.22656 17.1699 8.26562C16.8574 8.26562 16.584 8.24609 16.3496 8.20703H14.4746C14.1621 8.20703 13.8887 8.1875 13.6543 8.14844C13.4199 8.10938 13.166 8.08984 12.8926 8.08984C12.6973 8.08984 12.502 8.08984 12.3066 8.08984C12.1113 8.08984 11.916 8.10938 11.7207 8.14844C11.2129 8.22656 10.8223 8.26562 10.5488 8.26562C10.3145 8.26562 10.0996 8.26562 9.9043 8.26562C9.63086 8.46094 9.33789 8.59766 9.02539 8.67578C8.75195 8.75391 8.45898 8.83203 8.14648 8.91016C8.22461 9.88672 8.2832 10.9609 8.32227 12.1328C8.36133 13.2656 8.41992 14.3398 8.49805 15.3555C8.49805 15.5508 8.49805 15.7266 8.49805 15.8828C8.49805 16.0391 8.53711 16.1953 8.61523 16.3516C8.6543 16.8594 8.63477 17.2305 8.55664 17.4648C8.47852 17.6602 8.45898 17.8555 8.49805 18.0508C8.53711 18.168 8.57617 18.2852 8.61523 18.4023C8.69336 18.5195 8.75195 18.6562 8.79102 18.8125C8.83008 18.9688 8.83008 19.125 8.79102 19.2812C8.79102 19.4375 8.81055 19.6133 8.84961 19.8086C8.9668 20.043 9.00586 20.2383 8.9668 20.3945C8.9668 20.5117 8.98633 20.6094 9.02539 20.6875C9.06445 20.8047 9.10352 20.9219 9.14258 21.0391C9.2207 21.1562 9.25977 21.293 9.25977 21.4492C9.25977 21.8398 9.33789 22.1719 9.49414 22.4453C9.96289 22.4844 10.3926 22.4648 10.7832 22.3867C11.2129 22.3086 11.5449 22.2305 11.7793 22.1523C12.209 22.0742 12.502 21.9961 12.6582 21.918C12.8145 21.8398 12.9512 21.7617 13.0684 21.6836C13.3418 21.6055 13.5957 21.5664 13.8301 21.5664C14.1035 21.5664 14.377 21.5273 14.6504 21.4492C15.0801 21.2539 15.4121 21.1367 15.6465 21.0977C15.9199 21.0195 16.1934 20.9805 16.4668 20.9805C16.7793 20.8633 17.0723 20.7656 17.3457 20.6875C17.6191 20.5703 17.8926 20.4727 18.166 20.3945C18.2832 20.3555 18.3809 20.3359 18.459 20.3359C18.5762 20.3359 18.6934 20.3164 18.8105 20.2773C19.084 20.1602 19.2793 20.1016 19.3965 20.1016C19.5527 20.1016 19.6699 20.082 19.748 20.043C20.0605 19.9258 20.2949 19.7891 20.4512 19.6328C20.6465 19.4766 20.8418 19.418 21.0371 19.457C21.2324 19.1836 21.3496 18.9883 21.3887 18.8711C21.4277 18.7539 21.4863 18.6562 21.5645 18.5781C21.6426 18.5 21.7598 18.4805 21.916 18.5195C22.0723 18.5195 22.1895 18.4805 22.2676 18.4023C22.3848 18.0898 22.5215 17.8164 22.6777 17.582C22.834 17.3477 22.9902 17.0742 23.1465 16.7617C23.1074 16.4102 23.166 16.0781 23.3223 15.7656C23.5176 15.4531 23.6348 15.1406 23.6738 14.8281ZM68.9082 13.6562C68.9082 13.7734 68.8496 13.9297 68.7324 14.125C68.6543 14.3203 68.6152 14.4961 68.6152 14.6523C68.6543 14.9258 68.6543 15.1016 68.6152 15.1797C68.6152 15.2578 68.6152 15.3359 68.6152 15.4141C68.6543 15.6094 68.6543 15.7461 68.6152 15.8242C68.5762 15.9023 68.5762 15.9805 68.6152 16.0586C68.6543 16.293 68.6348 16.4688 68.5566 16.5859C68.5176 16.7031 68.498 16.8008 68.498 16.8789C68.459 16.9961 68.459 17.1328 68.498 17.2891C68.5371 17.4062 68.5566 17.5234 68.5566 17.6406C68.4785 17.9531 68.4199 18.207 68.3809 18.4023C68.3809 18.5586 68.3613 18.6758 68.3223 18.7539C68.3223 18.9492 68.3027 19.1641 68.2637 19.3984C68.2637 19.6328 68.2832 19.8867 68.3223 20.1602C68.3223 20.2383 68.3418 20.3359 68.3809 20.4531C68.459 20.5703 68.498 20.6875 68.498 20.8047C68.5371 21.2344 68.5176 21.6836 68.4395 22.1523C68.4004 22.6211 68.4004 23.0703 68.4395 23.5C68.4395 23.6953 68.459 23.8711 68.498 24.0273C68.5371 24.1836 68.5371 24.3594 68.498 24.5547C68.498 24.8281 68.459 25.082 68.3809 25.3164C68.3027 25.5508 68.2441 25.8242 68.2051 26.1367C68.2441 26.3711 68.2441 26.6445 68.2051 26.957C68.166 27.2305 68.2051 27.4648 68.3223 27.6602C68.2441 27.9336 68.1465 28.168 68.0293 28.3633C68.1074 28.9102 68.0879 29.4375 67.9707 29.9453C67.8926 30.4531 67.8535 30.9805 67.8535 31.5273C67.8926 31.7227 67.9316 31.918 67.9707 32.1133C68.0098 32.2695 68.0293 32.4453 68.0293 32.6406C68.0293 32.7188 68.0098 32.8164 67.9707 32.9336C67.9316 33.0508 67.9121 33.168 67.9121 33.2852C67.9902 33.6367 67.9902 33.8906 67.9121 34.0469C67.873 34.2031 67.834 34.3203 67.7949 34.3984C67.7559 34.8281 67.7363 35.1797 67.7363 35.4531C67.7363 35.6875 67.6387 35.9609 67.4434 36.2734C67.3262 36.4688 67.3066 36.7812 67.3848 37.2109C67.4629 37.6016 67.4043 37.9336 67.209 38.207C67.2871 38.4414 67.3066 38.6562 67.2676 38.8516C67.2676 39.0469 67.2676 39.3008 67.2676 39.6133C67.3066 40.1602 67.2871 40.5508 67.209 40.7852C67.1699 40.9805 67.1504 41.1758 67.1504 41.3711C67.1113 41.8398 67.1309 42.2891 67.209 42.7188C67.2871 43.1094 67.3457 43.5 67.3848 43.8906C67.2285 44.2812 67.2676 44.6133 67.502 44.8867C67.7363 45.1602 67.8535 45.4531 67.8535 45.7656C67.7754 45.9609 67.7168 46.1172 67.6777 46.2344C67.6387 46.3906 67.6191 46.4883 67.6191 46.5273C67.4238 46.6055 67.248 46.6836 67.0918 46.7617C66.9355 46.8789 66.7793 46.957 66.623 46.9961C66.5059 46.9961 66.3887 46.9766 66.2715 46.9375C66.1543 46.8984 66.0176 46.8789 65.8613 46.8789C65.7051 46.8398 65.5098 46.8398 65.2754 46.8789C65.0801 46.957 64.8848 46.9961 64.6895 46.9961C64.4941 47.0352 64.2598 47.0352 63.9863 46.9961C63.752 46.9961 63.5371 47.0352 63.3418 47.1133C63.1074 47.1523 62.873 47.2305 62.6387 47.3477C62.4434 47.4648 62.248 47.5234 62.0527 47.5234C61.7793 47.7969 61.5449 47.9141 61.3496 47.875C61.1543 47.875 61.0176 47.8945 60.9395 47.9336C60.7051 47.7383 60.5098 47.4258 60.3535 46.9961C60.1973 46.5664 60.2363 46.2344 60.4707 46C60.2754 45.4922 60.2363 44.9258 60.3535 44.3008C60.4707 43.6758 60.4707 43.0508 60.3535 42.4258C60.041 42.543 59.748 42.6992 59.4746 42.8945C59.2402 43.0898 59.0059 43.3047 58.7715 43.5391C58.6543 43.6172 58.5566 43.7344 58.4785 43.8906C58.4004 44.0078 58.2832 44.1055 58.127 44.1836C57.9707 44.2617 57.7949 44.3398 57.5996 44.418C57.4043 44.4961 57.2676 44.5938 57.1895 44.7109C56.9941 44.7891 56.7793 44.8281 56.5449 44.8281C56.3496 44.8281 56.1543 44.8672 55.959 44.9453C55.6855 45.0234 55.4121 45.1016 55.1387 45.1797C54.8652 45.2188 54.5527 45.2773 54.2012 45.3555C53.9668 45.4336 53.6543 45.5312 53.2637 45.6484C52.873 45.7656 52.4629 45.7852 52.0332 45.707C51.7207 45.6289 51.5059 45.6289 51.3887 45.707C51.3105 45.7461 51.2129 45.7656 51.0957 45.7656C50.7832 45.8438 50.4512 45.8047 50.0996 45.6484C50.0215 45.8047 49.8262 45.8438 49.5137 45.7656C49.2402 45.6875 49.0254 45.6094 48.8691 45.5312C48.5566 45.6484 48.2637 45.668 47.9902 45.5898C47.7168 45.5117 47.4238 45.4531 47.1113 45.4141C46.916 45.4141 46.7988 45.3555 46.7598 45.2383C46.7598 45.1211 46.6816 45.043 46.5254 45.0039C45.666 45.043 44.748 44.9453 43.7715 44.7109C43.6934 44.5547 43.5762 44.4375 43.4199 44.3594C43.3027 44.2812 43.2246 44.1445 43.1855 43.9492C42.9902 43.9883 42.8535 43.9492 42.7754 43.832C42.7363 43.7148 42.6191 43.6562 42.4238 43.6562C42.3457 43.4609 42.2285 43.3242 42.0723 43.2461C41.9551 43.1289 41.8574 43.0117 41.7793 42.8945C41.584 42.8945 41.4277 42.8555 41.3105 42.7773C41.2324 42.6992 41.0957 42.6602 40.9004 42.6602C40.666 42.3477 40.5293 42.1719 40.4902 42.1328C40.4512 42.0938 40.4121 42.0547 40.373 42.0156C40.1777 41.8594 40.0215 41.7812 39.9043 41.7812C39.8262 41.7812 39.7676 41.7617 39.7285 41.7227C39.5332 41.5273 39.377 41.3711 39.2598 41.2539C39.1426 41.1367 39.0254 41 38.9082 40.8438C38.6738 40.5312 38.4785 40.3359 38.3223 40.2578C38.166 40.1406 38.1074 39.9453 38.1465 39.6719C37.7949 39.4375 37.5605 39.2812 37.4434 39.2031C37.3652 39.0859 37.2871 38.9688 37.209 38.8516C37.0527 38.6562 36.9551 38.4609 36.916 38.2656C36.877 38.0703 36.7793 37.9336 36.623 37.8555C36.3496 37.4258 36.1348 37.0938 35.9785 36.8594C35.8223 36.5859 35.6074 36.4102 35.334 36.332C35.4121 36.1367 35.4121 36.0195 35.334 35.9805C35.2559 35.9414 35.2363 35.8438 35.2754 35.6875C34.9629 35.4141 34.7285 35.082 34.5723 34.6914C34.416 34.3008 34.2793 33.8906 34.1621 33.4609C34.0449 32.9922 33.9473 32.543 33.8691 32.1133C33.791 31.6445 33.6738 31.1953 33.5176 30.7656C33.5566 30.2188 33.5762 29.6523 33.5762 29.0664C33.5762 28.4414 33.6738 27.8945 33.8691 27.4258C33.9863 27.1523 34.0449 26.918 34.0449 26.7227C34.0449 26.5273 34.0645 26.332 34.1035 26.1367C34.1426 25.9414 34.1621 25.7656 34.1621 25.6094C34.2012 25.4141 34.2402 25.2188 34.2793 25.0234C34.3965 24.3984 34.4941 23.9297 34.5723 23.6172C34.6895 23.3047 34.8457 23.0312 35.041 22.7969C34.9629 22.5234 34.9629 22.2891 35.041 22.0938C35.1191 21.8594 35.2168 21.6641 35.334 21.5078C35.4512 21.3125 35.5684 21.1172 35.6855 20.9219C35.8027 20.7266 35.8613 20.5117 35.8613 20.2773C36.0566 20.1211 36.1934 19.9453 36.2715 19.75C36.3887 19.5156 36.5254 19.3008 36.6816 19.1055C36.7598 18.9492 36.8574 18.7734 36.9746 18.5781C37.0918 18.3828 37.209 18.1875 37.3262 17.9922C37.4043 17.875 37.502 17.7578 37.6191 17.6406C37.7754 17.5234 37.834 17.3672 37.7949 17.1719C37.9121 17.0938 38.0098 17.0156 38.0879 16.9375C38.166 16.8594 38.3027 16.7812 38.498 16.7031C38.8105 16.2344 39.0645 15.8242 39.2598 15.4727C39.4551 15.082 39.6895 14.7305 39.9629 14.418C40.1191 14.2617 40.2559 14.1445 40.373 14.0664C40.5293 13.9492 40.6855 13.832 40.8418 13.7148C40.9199 13.5195 41.0566 13.4023 41.252 13.3633C41.4863 13.2852 41.623 13.1484 41.6621 12.9531C42.0527 12.875 42.4434 12.7969 42.834 12.7188C43.2246 12.6016 43.5762 12.4258 43.8887 12.1914C44.123 12.1523 44.3574 12.1328 44.5918 12.1328C44.8652 12.0938 45.0996 11.9961 45.2949 11.8398C45.6855 11.918 45.998 11.8984 46.2324 11.7812C46.4668 11.625 46.6816 11.4687 46.877 11.3125C47.502 11.3125 48.0879 11.3125 48.6348 11.3125C49.2207 11.2734 49.8457 11.2734 50.5098 11.3125C50.8223 11.3125 51.1152 11.293 51.3887 11.2539C51.7012 11.2148 51.9746 11.2148 52.209 11.2539C52.4043 11.2539 52.5801 11.2539 52.7363 11.2539C52.8926 11.2539 53.0293 11.3125 53.1465 11.4297C53.498 11.2734 53.8301 11.293 54.1426 11.4883C54.2207 11.5273 54.3184 11.5469 54.4355 11.5469C54.5527 11.5078 54.709 11.5273 54.9043 11.6055C55.2949 11.7227 55.5488 11.7812 55.666 11.7812C55.8223 11.7812 55.9395 11.7812 56.0176 11.7812C56.3301 11.9375 56.5254 12.0352 56.6035 12.0742C56.6816 12.1133 56.8184 12.2109 57.0137 12.3672C57.5215 12.6797 57.9121 12.9141 58.1855 13.0703C58.498 13.1875 58.791 13.3437 59.0645 13.5391C59.2598 13.7734 59.3965 13.9102 59.4746 13.9492C59.5527 13.9883 59.6309 14.0469 59.709 14.125C59.7871 14.2031 59.8652 14.3008 59.9434 14.418C60.0215 14.4961 60.1191 14.5938 60.2363 14.7109C60.3145 14.8672 60.4316 15.0039 60.5879 15.1211C60.7441 15.2383 60.9004 15.375 61.0566 15.5312C61.1348 15.6094 61.1934 15.707 61.2324 15.8242C61.3105 15.9414 61.4082 16.0391 61.5254 16.1172C61.6035 16.1953 61.7207 16.3125 61.877 16.4688C62.0723 16.5859 62.1699 16.7422 62.1699 16.9375C62.3262 16.3906 62.3652 15.8242 62.2871 15.2383C62.209 14.6133 62.0918 14.0859 61.9355 13.6562C61.8184 13.4219 61.7012 13.2461 61.584 13.1289C61.4668 12.9727 61.4668 12.7188 61.584 12.3672C61.623 12.2109 61.7012 12.0352 61.8184 11.8398C61.9746 11.6445 62.0918 11.5078 62.1699 11.4297C62.1699 11.4687 62.3066 11.5078 62.5801 11.5469C62.8535 11.5469 63.0879 11.5469 63.2832 11.5469C63.4785 11.5859 63.6348 11.625 63.752 11.6641C63.9082 11.6641 64.0645 11.6641 64.2207 11.6641C64.6504 11.6641 65.1777 11.6836 65.8027 11.7227C66.4277 11.7617 66.9551 11.8594 67.3848 12.0156C67.6973 11.9375 67.9512 11.957 68.1465 12.0742C68.3418 12.1523 68.5566 12.2305 68.791 12.3086C68.8301 12.4648 68.8301 12.6016 68.791 12.7188C68.791 12.7969 68.8105 12.9141 68.8496 13.0703L68.9082 13.6562ZM60.4121 27.7188C60.334 27.6016 60.2754 27.4453 60.2363 27.25C60.2363 27.0156 60.2363 26.8008 60.2363 26.6055C60.1582 26.4883 60.0605 26.4102 59.9434 26.3711C59.8652 26.293 59.7871 26.2148 59.709 26.1367C59.709 25.8242 59.6504 25.5703 59.5332 25.375C59.4551 25.1797 59.3965 24.9844 59.3574 24.7891C59.4355 24.4766 59.416 24.2617 59.2988 24.1445C59.2207 23.9883 59.1621 23.832 59.123 23.6758C59.0449 23.4805 59.0059 23.2852 59.0059 23.0898C59.0059 22.8555 58.9863 22.6211 58.9473 22.3867C58.752 22.2695 58.6348 22.1523 58.5957 22.0352C58.5566 21.918 58.498 21.8203 58.4199 21.7422C58.1074 21.4297 57.873 21.1953 57.7168 21.0391C57.5605 20.8828 57.4043 20.7266 57.248 20.5703C56.8965 20.2188 56.5254 19.9648 56.1348 19.8086C55.8223 19.6133 55.5293 19.457 55.2559 19.3398C54.9824 19.1836 54.7285 19.0469 54.4941 18.9297C54.2598 18.8125 54.0254 18.7539 53.791 18.7539C53.5566 18.7539 53.2832 18.7148 52.9707 18.6367C52.7754 18.5586 52.6191 18.5 52.502 18.4609C52.3848 18.3828 52.2676 18.3242 52.1504 18.2852C52.0723 18.2852 51.9551 18.3047 51.7988 18.3438C51.6426 18.3438 51.4863 18.3242 51.3301 18.2852C51.2129 18.2852 51.0762 18.2656 50.9199 18.2266C50.8027 18.1484 50.7051 18.1094 50.627 18.1094C50.2363 18.1875 49.9434 18.1875 49.748 18.1094C49.5527 17.9922 49.416 17.9727 49.3379 18.0508C48.9473 18.0898 48.6738 18.168 48.5176 18.2852C48.4004 18.4023 48.2051 18.5391 47.9316 18.6953C47.5801 18.8516 47.3457 18.9688 47.2285 19.0469C47.1504 19.0859 47.0723 19.125 46.9941 19.1641C46.6035 19.3594 46.3301 19.5156 46.1738 19.6328C46.0176 19.75 45.8809 19.8477 45.7637 19.9258C45.4902 20.043 45.334 20.1406 45.2949 20.2188C45.2559 20.2578 45.1973 20.2773 45.1191 20.2773C45.041 20.3945 44.9629 20.4922 44.8848 20.5703C44.8066 20.6484 44.7285 20.7461 44.6504 20.8633C44.416 21.0586 44.2207 21.2344 44.0645 21.3906C43.9082 21.5078 43.791 21.6055 43.7129 21.6836C43.4785 21.918 43.2051 22.0938 42.8926 22.2109C42.8535 22.6406 42.7168 22.9727 42.4824 23.207C42.248 23.4023 42.1309 23.7148 42.1309 24.1445C41.9746 24.3398 41.8574 24.5352 41.7793 24.7305C41.7012 24.8867 41.623 25.0625 41.5449 25.2578C41.4668 25.4922 41.4082 25.7461 41.3691 26.0195C41.3691 26.2539 41.3301 26.5273 41.252 26.8398C41.1738 27.0742 41.0957 27.2695 41.0176 27.4258C40.9395 27.582 40.8809 27.7578 40.8418 27.9531C40.9199 28.5 40.9004 28.9102 40.7832 29.1836C40.7051 29.418 40.6465 29.6914 40.6074 30.0039C40.6074 30.1602 40.627 30.3164 40.666 30.4727C40.7441 30.6289 40.7832 30.8047 40.7832 31C40.7832 31.3125 40.7637 31.5469 40.7246 31.7031C40.6855 31.8203 40.666 31.918 40.666 31.9961C40.7051 32.2695 40.7832 32.5234 40.9004 32.7578C41.0566 32.9922 41.0957 33.2656 41.0176 33.5781C41.291 33.7734 41.5449 33.9688 41.7793 34.1641C42.0137 34.3594 42.2871 34.5352 42.5996 34.6914C42.873 35.1602 43.2051 35.5508 43.5957 35.8633C43.9863 36.1758 44.3574 36.4883 44.709 36.8008C45.0605 37.1914 45.4512 37.4648 45.8809 37.6211C46.2324 37.8164 46.5059 37.9531 46.7012 38.0312C46.9355 38.0703 47.1504 38.1094 47.3457 38.1484C47.4629 38.1875 47.5996 38.2461 47.7559 38.3242C47.9512 38.3633 48.0879 38.4023 48.166 38.4414C48.8301 38.5195 49.4355 38.6367 49.9824 38.793C50.5293 38.9102 51.0176 38.9688 51.4473 38.9688C51.5645 39.0078 51.7012 39.0273 51.8574 39.0273C52.0137 38.9883 52.1504 38.9492 52.2676 38.9102C52.4238 38.9102 52.5801 38.9102 52.7363 38.9102C52.9316 38.9102 53.0879 38.8906 53.2051 38.8516C53.5176 38.6953 53.7129 38.6172 53.791 38.6172C53.8691 38.6172 53.9473 38.5977 54.0254 38.5586C54.1426 38.5195 54.2793 38.4609 54.4355 38.3828C54.5918 38.3047 54.748 38.3438 54.9043 38.5C55.0215 38.2656 55.1777 38.0703 55.373 37.9141C55.6074 37.7578 55.8223 37.6211 56.0176 37.5039C56.2129 37.3477 56.3887 37.1719 56.5449 36.9766C56.7402 36.7812 56.8574 36.5273 56.8965 36.2148C57.0918 35.9023 57.2676 35.6875 57.4238 35.5703C57.5801 35.4141 57.7168 35.2578 57.834 35.1016C57.9121 34.9844 57.9707 34.8477 58.0098 34.6914C58.0879 34.4961 58.166 34.3594 58.2441 34.2812C58.4395 33.9688 58.5762 33.7148 58.6543 33.5195C58.7715 33.2852 58.9277 33.0703 59.123 32.875C59.0449 32.6797 59.0449 32.5039 59.123 32.3477C59.2402 32.1523 59.3379 31.9766 59.416 31.8203C59.6113 31.2734 59.748 30.7656 59.8262 30.2969C59.9043 29.7891 59.9434 29.2031 59.9434 28.5391C60.1387 28.2656 60.2949 27.9922 60.4121 27.7188ZM96.623 20.043C96.3887 20.3164 96.2324 20.4531 96.1543 20.4531C96.1152 20.4531 96.0566 20.4922 95.9785 20.5703C95.5098 20.8438 95.2559 20.9609 95.2168 20.9219C94.9043 20.8828 94.6895 20.7266 94.5723 20.4531C94.4551 20.1797 94.2402 19.9648 93.9277 19.8086C93.7324 19.8867 93.5371 19.9062 93.3418 19.8672C93.1465 19.8281 92.9512 19.8281 92.7559 19.8672C92.5605 19.9062 92.3848 19.9648 92.2285 20.043C92.0723 20.1211 91.8965 20.1992 91.7012 20.2773C91.1543 20.4727 90.7832 20.6289 90.5879 20.7461C90.3926 20.8242 90.1973 20.9219 90.002 21.0391C89.8457 21.1953 89.7285 21.3516 89.6504 21.5078C89.5723 21.625 89.4355 21.7812 89.2402 21.9766C89.0059 22.1719 88.7324 22.3672 88.4199 22.5625C88.1465 22.7188 87.9121 22.8945 87.7168 23.0898C87.6387 23.207 87.5801 23.3633 87.541 23.5586C87.502 23.7148 87.4238 23.8711 87.3066 24.0273C87.0332 24.2617 86.877 24.418 86.8379 24.4961C86.7988 24.5742 86.7598 24.6328 86.7207 24.6719C86.6035 24.8672 86.5449 25.0234 86.5449 25.1406C86.584 25.2578 86.584 25.3555 86.5449 25.4336C86.5059 25.5117 86.4277 25.6484 86.3105 25.8438C86.1934 26 86.1738 26.1953 86.252 26.4297C86.0176 26.7422 85.9004 26.9766 85.9004 27.1328C85.9004 27.25 85.8809 27.3477 85.8418 27.4258C85.6465 27.6211 85.5293 27.7969 85.4902 27.9531C85.4902 28.0703 85.4512 28.1875 85.373 28.3047C85.1777 28.6562 85.0801 28.9297 85.0801 29.125C85.1191 29.2812 85.1191 29.4375 85.0801 29.5938C84.9629 30.0234 84.9043 30.3555 84.9043 30.5898C84.9043 30.7852 84.8848 30.9805 84.8457 31.1758C84.8066 31.4492 84.748 31.7227 84.6699 31.9961C84.5918 32.2305 84.5137 32.5039 84.4355 32.8164C84.3965 33.0117 84.3965 33.2266 84.4355 33.4609C84.4746 33.6562 84.4551 33.8906 84.377 34.1641C84.377 34.2812 84.3379 34.3984 84.2598 34.5156C84.2207 34.6328 84.2012 34.7891 84.2012 34.9844C84.1621 35.2969 84.1816 35.5898 84.2598 35.8633C84.3379 36.1367 84.2402 36.3906 83.9668 36.625C84.084 36.8594 84.1426 37.2109 84.1426 37.6797C84.1816 38.1094 84.1035 38.4219 83.9082 38.6172C84.0645 39.0469 84.123 39.5156 84.084 40.0234C84.084 40.5312 84.0645 41.0586 84.0254 41.6055C83.9863 42.1133 83.9473 42.6406 83.9082 43.1875C83.9082 43.6953 83.9668 44.1836 84.084 44.6523C84.1621 44.9258 84.3379 45.082 84.6113 45.1211C84.8848 45.1211 85.1191 45.1992 85.3145 45.3555C85.3145 45.4727 85.3535 45.5898 85.4316 45.707C85.5488 45.7852 85.6465 45.9219 85.7246 46.1172C85.7637 46.3906 85.6855 46.6641 85.4902 46.9375C85.2949 47.2109 85.0996 47.3867 84.9043 47.4648C84.748 47.543 84.5918 47.543 84.4355 47.4648C84.2793 47.4258 84.0449 47.4453 83.7324 47.5234C83.5762 47.5625 83.4004 47.6211 83.2051 47.6992C83.0098 47.8164 82.8145 47.9141 82.6191 47.9922C82.3066 48.1094 81.9355 48.207 81.5059 48.2852C81.0762 48.4023 80.6465 48.5 80.2168 48.5781C80.0215 48.6172 79.8262 48.6367 79.6309 48.6367C79.4355 48.6758 79.2402 48.7148 79.0449 48.7539C78.8105 48.832 78.5762 48.9102 78.3418 48.9883C78.1074 49.1055 77.8926 49.1445 77.6973 49.1055C77.3066 49.0273 77.0332 48.8125 76.877 48.4609C76.7207 48.1094 76.6426 47.7188 76.6426 47.2891C76.6426 47.0938 76.6621 46.8984 76.7012 46.7031C76.7793 46.5469 76.7988 46.3711 76.7598 46.1758C76.7598 45.9805 76.7207 45.8047 76.6426 45.6484C76.6035 45.4531 76.5645 45.2578 76.5254 45.0625C76.4473 44.5547 76.4277 44.0469 76.4668 43.5391C76.5059 42.9922 76.5254 42.4453 76.5254 41.8984C76.5254 41.7422 76.5449 41.6055 76.584 41.4883C76.623 41.332 76.6426 41.1953 76.6426 41.0781C76.6035 40.9219 76.5645 40.7852 76.5254 40.668C76.4863 40.5117 76.4668 40.3555 76.4668 40.1992C76.3887 39.8867 76.3301 39.6133 76.291 39.3789C76.252 39.1445 76.2129 38.8516 76.1738 38.5C76.1738 38.3828 76.1543 38.2461 76.1152 38.0898C76.1152 37.9336 76.1152 37.7969 76.1152 37.6797C76.1152 37.4062 76.1348 37.1719 76.1738 36.9766C76.252 36.7422 76.3105 36.5078 76.3496 36.2734C76.2715 35.8438 76.252 35.4531 76.291 35.1016C76.3691 34.75 76.4082 34.4375 76.4082 34.1641C76.3691 33.9297 76.3105 33.6953 76.2324 33.4609C76.1934 33.2266 76.1543 32.9922 76.1152 32.7578C76.1152 32.6406 76.1152 32.5039 76.1152 32.3477C76.1543 32.1523 76.1738 32.0352 76.1738 31.9961C76.0566 31.4883 75.9785 31.0781 75.9395 30.7656C75.9395 30.4531 75.9199 30.1992 75.8809 30.0039C75.8418 29.5742 75.8418 29.2812 75.8809 29.125C75.959 28.9297 76.0176 28.7344 76.0566 28.5391C76.1348 28.1484 76.1348 27.7578 76.0566 27.3672C76.0176 26.9375 76.0176 26.5273 76.0566 26.1367C76.0957 25.8242 76.1543 25.5312 76.2324 25.2578C76.3496 24.9844 76.4082 24.6914 76.4082 24.3789C76.4082 24.2617 76.3887 24.1445 76.3496 24.0273C76.3496 23.8711 76.3496 23.7344 76.3496 23.6172C76.3496 23.5 76.3691 23.3828 76.4082 23.2656C76.4473 23.1094 76.4668 22.9727 76.4668 22.8555C76.4277 22.7773 76.3887 22.6797 76.3496 22.5625C76.3105 22.4062 76.291 22.2695 76.291 22.1523C76.2129 21.8789 76.2129 21.625 76.291 21.3906C76.3691 21.1172 76.4082 20.8242 76.4082 20.5117C76.4082 20.3164 76.3887 20.1211 76.3496 19.9258C76.3105 19.7305 76.2715 19.5352 76.2324 19.3398C76.2324 19.2617 76.2324 19.1641 76.2324 19.0469C76.2715 18.8906 76.2715 18.7734 76.2324 18.6953C76.1543 18.3047 76.1348 17.9922 76.1738 17.7578C76.252 17.4844 76.291 17.2305 76.291 16.9961C76.291 16.6836 76.2715 16.3906 76.2324 16.1172C76.1934 15.8438 76.252 15.5508 76.4082 15.2383C76.4082 15.043 76.3496 14.8867 76.2324 14.7695C76.1152 14.6133 76.0176 14.457 75.9395 14.3008C76.0957 13.9883 76.1152 13.6758 75.998 13.3633C75.9199 13.0508 75.9199 12.7383 75.998 12.4258C76.3105 12.1133 76.623 11.9766 76.9355 12.0156C77.248 12.0156 77.4629 12.1133 77.5801 12.3086C77.6973 12.4648 77.834 12.6016 77.9902 12.7188C78.4199 12.8359 78.8105 12.875 79.1621 12.8359C79.5137 12.7578 79.9043 12.7188 80.334 12.7188C80.5684 12.7188 80.7832 12.7383 80.9785 12.7773C81.2129 12.8164 81.4277 12.8359 81.623 12.8359C81.9355 12.7969 82.209 12.7188 82.4434 12.6016C82.7168 12.4453 83.0879 12.4453 83.5566 12.6016C83.7129 12.6797 83.791 12.7969 83.791 12.9531C83.8301 13.0703 83.9082 13.2266 84.0254 13.4219C84.0645 13.7344 84.1035 13.9297 84.1426 14.0078C84.1816 14.0469 84.2012 14.1055 84.2012 14.1836C84.123 14.5352 84.0449 14.8672 83.9668 15.1797C83.8887 15.4922 83.9082 15.8438 84.0254 16.2344C84.2598 16.2344 84.4355 16.1758 84.5527 16.0586C84.709 15.9023 84.8652 15.7461 85.0215 15.5898C85.0996 15.5117 85.1777 15.4336 85.2559 15.3555C85.373 15.2383 85.4707 15.1406 85.5488 15.0625C85.8613 14.7891 86.0762 14.5742 86.1934 14.418C86.3496 14.2617 86.4863 14.1445 86.6035 14.0664C86.7207 13.9492 86.8574 13.8516 87.0137 13.7734C87.1699 13.6953 87.2871 13.5781 87.3652 13.4219C87.7168 13.3437 88.0684 13.207 88.4199 13.0117C88.7715 12.7773 89.1621 12.7383 89.5918 12.8945C89.7871 12.6992 90.0801 12.543 90.4707 12.4258C90.9004 12.2695 91.2324 12.3086 91.4668 12.543C92.209 12.543 92.8535 12.4258 93.4004 12.1914C93.9473 11.957 94.4551 11.8984 94.9238 12.0156C95.1191 12.0547 95.2559 12.1328 95.334 12.25C95.4512 12.3281 95.5879 12.4062 95.7441 12.4844C95.8613 12.5234 95.9785 12.5625 96.0957 12.6016C96.252 12.6406 96.3887 12.6992 96.5059 12.7773C96.7793 13.207 96.8574 13.6758 96.7402 14.1836C96.6621 14.6523 96.6035 15.1406 96.5645 15.6484C96.6035 16.1172 96.6035 16.4688 96.5645 16.7031C96.5254 16.9375 96.5059 17.1523 96.5059 17.3477C96.5059 17.7773 96.5254 18.2266 96.5645 18.6953C96.6035 19.125 96.623 19.5742 96.623 20.043ZM110.334 4.10547C110.412 4.18359 110.432 4.45703 110.393 4.92578C110.354 5.39453 110.295 5.72656 110.217 5.92188C110.178 6.03906 110.119 6.15625 110.041 6.27344C109.963 6.35156 109.885 6.42969 109.807 6.50781C109.729 6.97656 109.611 7.34766 109.455 7.62109C109.299 7.89453 109.182 8.12891 109.104 8.32422C108.908 8.40234 108.713 8.51953 108.518 8.67578C108.361 8.79297 108.186 8.89062 107.99 8.96875C107.521 9.125 107.131 9.28125 106.818 9.4375C106.506 9.55469 106.193 9.61328 105.881 9.61328C105.725 9.61328 105.588 9.59375 105.471 9.55469C105.354 9.47656 105.236 9.41797 105.119 9.37891C104.924 9.33984 104.729 9.32031 104.533 9.32031C104.338 9.32031 104.143 9.30078 103.947 9.26172C103.752 8.91016 103.518 8.59766 103.244 8.32422C103.01 8.01172 102.834 7.64063 102.717 7.21094C102.6 7.05469 102.424 6.85938 102.189 6.625C102.189 6.3125 102.131 6.03906 102.014 5.80469C101.896 5.53125 101.838 5.23828 101.838 4.92578C101.838 4.69141 101.916 4.37891 102.072 3.98828C102.111 3.79297 102.131 3.59766 102.131 3.40234C102.17 3.20703 102.209 3.07031 102.248 2.99219C102.521 2.67969 102.717 2.50391 102.834 2.46484C102.951 2.38672 103.049 2.28906 103.127 2.17188C103.283 1.89844 103.361 1.72266 103.361 1.64453C103.361 1.56641 103.381 1.48828 103.42 1.41016C103.537 1.25391 103.693 1.11719 103.889 1C104.123 0.84375 104.338 0.707031 104.533 0.589844C104.729 0.433594 104.982 0.375 105.295 0.414062C105.607 0.414062 105.979 0.394531 106.408 0.355469C106.564 0.667969 106.818 0.882812 107.17 1C107.521 1.11719 107.795 1.33203 107.99 1.64453C108.303 1.72266 108.498 1.78125 108.576 1.82031C108.654 1.82031 108.732 1.85937 108.811 1.9375C109.475 2.40625 109.963 3.03125 110.275 3.8125L110.334 4.10547ZM110.51 14.2422C110.432 14.6328 110.354 15.0234 110.275 15.4141C110.236 15.7656 110.236 16.1758 110.275 16.6445C110.275 16.8398 110.295 17.0156 110.334 17.1719C110.412 17.3281 110.451 17.5039 110.451 17.6992C110.451 17.9727 110.412 18.2656 110.334 18.5781C110.256 18.8516 110.217 19.1445 110.217 19.457C110.217 19.7695 110.217 20.0625 110.217 20.3359C110.217 20.5703 110.236 20.8438 110.275 21.1562C110.275 21.3125 110.295 21.4297 110.334 21.5078C110.373 21.5469 110.354 21.6445 110.275 21.8008C110.041 22.3477 109.982 23.0508 110.1 23.9102C110.217 24.7695 110.275 25.5312 110.275 26.1953C110.236 26.5859 110.178 26.9766 110.1 27.3672C110.021 27.7578 109.963 28.168 109.924 28.5977C109.846 29.4961 109.787 30.3945 109.748 31.293C109.748 32.1523 109.709 33.0117 109.631 33.8711C109.592 34.1055 109.572 34.3594 109.572 34.6328C109.611 34.8672 109.611 35.082 109.572 35.2773C109.533 35.8242 109.475 36.3516 109.396 36.8594C109.357 37.3672 109.299 37.8555 109.221 38.3242C109.182 38.6758 109.182 39.0273 109.221 39.3789C109.26 39.6914 109.279 40.0234 109.279 40.375C109.279 40.5703 109.279 40.7461 109.279 40.9023C109.318 41.0586 109.338 41.2344 109.338 41.4297C109.377 41.5859 109.416 41.7422 109.455 41.8984C109.494 42.0156 109.514 42.1719 109.514 42.3672C109.475 42.5234 109.455 42.6602 109.455 42.7773C109.455 42.8555 109.455 42.9336 109.455 43.0117C109.455 43.0898 109.475 43.1484 109.514 43.1875C109.436 43.5 109.416 43.7148 109.455 43.832C109.494 43.9102 109.514 43.9883 109.514 44.0664C109.475 44.1836 109.416 44.3203 109.338 44.4766C109.299 44.5938 109.279 44.75 109.279 44.9453C109.279 45.2578 109.299 45.5703 109.338 45.8828C109.416 46.1562 109.416 46.4492 109.338 46.7617C109.064 46.8789 108.811 46.9961 108.576 47.1133C108.342 47.2695 108.01 47.2891 107.58 47.1719C107.385 47.0938 107.268 46.9375 107.229 46.7031C107.189 46.4688 107.092 46.2734 106.936 46.1172C106.623 46.0781 106.35 46.0195 106.115 45.9414C105.92 45.8633 105.725 45.7656 105.529 45.6484C105.373 45.7266 105.158 45.7461 104.885 45.707C104.65 45.6289 104.396 45.5703 104.123 45.5312C103.811 45.4531 103.518 45.4141 103.244 45.4141C102.971 45.4141 102.756 45.375 102.6 45.2969C102.365 44.9844 102.229 44.7109 102.189 44.4766C102.189 44.2031 102.111 44.0078 101.955 43.8906C102.111 43.5391 102.209 43.2266 102.248 42.9531C102.326 42.5625 102.326 42.2109 102.248 41.8984C102.17 41.5469 102.15 41.1758 102.189 40.7852C102.189 40.668 102.229 40.4531 102.307 40.1406C102.346 39.8672 102.365 39.6328 102.365 39.4375C102.365 39.2422 102.385 39.0469 102.424 38.8516C102.463 38.5391 102.502 38.3633 102.541 38.3242C102.58 38.2461 102.619 38.168 102.658 38.0898C102.697 37.4258 102.717 36.7422 102.717 36.0391C102.756 35.3359 102.795 34.8281 102.834 34.5156C102.834 34.3203 102.834 34.1836 102.834 34.1055C102.873 33.9883 102.893 33.832 102.893 33.6367C102.893 32.8555 102.912 32.1914 102.951 31.6445C103.029 31.0586 103.049 30.4531 103.01 29.8281C102.971 29.3984 102.971 29.0078 103.01 28.6562C103.088 28.3047 103.127 27.9531 103.127 27.6016C103.166 27.1719 103.146 26.8008 103.068 26.4883C103.029 26.1367 103.107 25.7852 103.303 25.4336C103.146 25.043 103.088 24.6523 103.127 24.2617C103.205 23.8711 103.244 23.5 103.244 23.1484C103.244 22.8359 103.244 22.543 103.244 22.2695C103.244 21.9961 103.264 21.7031 103.303 21.3906C103.303 21.1953 103.283 21 103.244 20.8047C103.205 20.5703 103.225 20.3555 103.303 20.1602C103.342 19.7305 103.361 19.4375 103.361 19.2812C103.4 19.0859 103.42 18.9492 103.42 18.8711C103.42 18.7148 103.381 18.5781 103.303 18.4609C103.264 18.3438 103.244 18.2266 103.244 18.1094C103.244 17.9531 103.244 17.8164 103.244 17.6992C103.283 17.582 103.283 17.4648 103.244 17.3477C103.166 16.8789 103.107 16.5664 103.068 16.4102C103.068 16.2148 103.088 16.0586 103.127 15.9414C103.088 15.7461 102.971 15.6289 102.775 15.5898C102.58 15.5508 102.443 15.4531 102.365 15.2969C102.287 14.9844 102.209 14.6523 102.131 14.3008C102.053 13.9102 102.15 13.6172 102.424 13.4219C102.619 13.3437 102.795 13.3242 102.951 13.3633C103.146 13.3633 103.381 13.3828 103.654 13.4219C103.889 13.5 104.045 13.5195 104.123 13.4805C104.201 13.4414 104.279 13.4414 104.357 13.4805C104.475 13.5195 104.592 13.5781 104.709 13.6562C104.865 13.6953 105.021 13.7344 105.178 13.7734C105.568 13.8125 106.018 13.8125 106.525 13.7734C107.033 13.7344 107.521 13.6953 107.99 13.6562C108.498 13.5781 108.947 13.5391 109.338 13.5391C109.729 13.5 110.002 13.5391 110.158 13.6562C110.275 13.7344 110.334 13.8516 110.334 14.0078C110.334 14.125 110.393 14.2031 110.51 14.2422ZM135.412 16.7617C135.373 17.1523 135.373 17.4258 135.412 17.582C135.451 17.7383 135.451 17.8555 135.412 17.9336C135.334 18.207 135.197 18.4023 135.002 18.5195C134.807 18.5977 134.631 18.7148 134.475 18.8711C134.084 18.6758 133.732 18.6367 133.42 18.7539C133.107 18.8711 132.795 18.9688 132.482 19.0469C132.404 19.0469 132.268 19.0664 132.072 19.1055C131.916 19.1055 131.799 19.1055 131.721 19.1055C131.408 19.1055 131.115 19.1641 130.842 19.2812C130.568 19.3984 130.314 19.4766 130.08 19.5156C129.885 19.5547 129.709 19.5547 129.553 19.5156C129.396 19.4766 129.221 19.5156 129.025 19.6328C128.869 19.9844 128.811 20.375 128.85 20.8047C128.928 21.1953 128.928 21.6055 128.85 22.0352C128.771 22.6602 128.752 23.168 128.791 23.5586C128.869 23.9102 128.908 24.2422 128.908 24.5547C128.908 24.9062 128.889 25.2383 128.85 25.5508C128.85 25.8633 128.928 26.1562 129.084 26.4297C128.967 26.6641 128.889 26.957 128.85 27.3086C128.85 27.6211 128.85 27.9336 128.85 28.2461C128.771 28.793 128.771 29.418 128.85 30.1211C128.928 30.8242 128.967 31.4492 128.967 31.9961C128.928 32.2695 128.889 32.5234 128.85 32.7578C128.85 32.9531 128.83 33.168 128.791 33.4023C128.713 33.7148 128.693 33.9102 128.732 33.9883C128.771 34.0664 128.791 34.1445 128.791 34.2227C128.752 34.6133 128.732 35.0625 128.732 35.5703C128.771 36.0781 128.771 36.6055 128.732 37.1523C128.732 37.5039 128.713 37.7578 128.674 37.9141C128.635 38.0703 128.615 38.207 128.615 38.3242C128.654 38.6367 128.693 38.9688 128.732 39.3203C128.811 39.6719 128.713 40.0234 128.439 40.375C128.439 40.4922 128.459 40.6094 128.498 40.7266C128.576 40.8047 128.635 40.9023 128.674 41.0195C128.596 41.332 128.576 41.5664 128.615 41.7227C128.693 41.8789 128.732 41.9961 128.732 42.0742C128.654 42.5039 128.635 42.875 128.674 43.1875C128.713 43.4609 128.752 43.7344 128.791 44.0078C128.791 45.2188 128.537 46.0195 128.029 46.4102C127.521 46.332 127.014 46.2539 126.506 46.1758C126.037 46.0977 125.549 46.0977 125.041 46.1758C124.807 46.2148 124.572 46.2539 124.338 46.293C124.104 46.3711 123.83 46.3516 123.518 46.2344C123.322 46.2734 123.186 46.3125 123.107 46.3516C123.029 46.4297 122.912 46.4688 122.756 46.4688C122.6 46.5078 122.463 46.4688 122.346 46.3516C122.229 46.2344 122.092 46.1562 121.936 46.1172C121.857 45.6484 121.838 45.0625 121.877 44.3594C121.955 43.6562 121.975 42.9141 121.936 42.1328C121.936 41.9375 121.916 41.7812 121.877 41.6641C121.838 41.5078 121.799 41.332 121.76 41.1367C121.721 40.8633 121.701 40.5898 121.701 40.3164C121.74 40.0039 121.74 39.6914 121.701 39.3789C121.701 39.2617 121.721 39.1445 121.76 39.0273C121.799 38.8711 121.818 38.7344 121.818 38.6172C121.818 38.4609 121.779 38.3828 121.701 38.3828C121.662 38.3438 121.643 38.207 121.643 37.9727C121.643 37.4648 121.682 36.9961 121.76 36.5664C121.877 36.1367 121.975 35.707 122.053 35.2773C121.975 34.8086 121.936 34.4766 121.936 34.2812C121.936 34.0469 121.936 33.8516 121.936 33.6953C121.896 33.5391 121.838 33.3633 121.76 33.168C121.682 32.9727 121.643 32.7773 121.643 32.582C121.643 32.4258 121.643 32.3086 121.643 32.2305C121.682 32.1523 121.662 32.0156 121.584 31.8203C121.545 31.1562 121.545 30.5703 121.584 30.0625C121.662 29.5156 121.682 28.9883 121.643 28.4805C121.525 28.0508 121.467 27.7188 121.467 27.4844C121.467 27.2109 121.447 26.9766 121.408 26.7812C121.369 26.5078 121.33 26.2148 121.291 25.9023C121.291 25.5898 121.311 25.2578 121.35 24.9062C121.35 24.75 121.369 24.6133 121.408 24.4961C121.447 24.3789 121.467 24.2422 121.467 24.0859C121.467 23.8906 121.428 23.7148 121.35 23.5586C121.311 23.4023 121.291 23.2266 121.291 23.0312C121.291 22.7188 121.311 22.3867 121.35 22.0352C121.428 21.6836 121.467 21.3516 121.467 21.0391C121.428 20.9219 121.389 20.8047 121.35 20.6875C121.311 20.5312 121.291 20.3945 121.291 20.2773C121.252 19.8867 121.271 19.5156 121.35 19.1641C121.467 18.8125 121.486 18.4609 121.408 18.1094C120.627 18.2656 120.002 18.4219 119.533 18.5781C119.377 18.6172 119.221 18.6562 119.064 18.6953C118.947 18.6953 118.791 18.7344 118.596 18.8125C118.283 18.8906 118.029 18.9688 117.834 19.0469C117.639 19.125 117.424 19.0664 117.189 18.8711C116.838 18.5586 116.623 18.3047 116.545 18.1094C116.506 17.7969 116.545 17.543 116.662 17.3477C116.818 17.1523 116.994 16.957 117.189 16.7617C117.111 16.6055 117.111 16.4883 117.189 16.4102C117.268 16.332 117.326 16.1953 117.365 16C117.404 15.8047 117.404 15.6094 117.365 15.4141C117.365 15.1797 117.404 14.9453 117.482 14.7109C117.561 14.4766 117.658 14.2617 117.775 14.0664C117.893 13.8711 117.971 13.6758 118.01 13.4805C118.049 13.207 118.029 12.9336 117.951 12.6602C117.873 12.3867 117.873 12.1133 117.951 11.8398C118.068 11.1758 118.557 10.9219 119.416 11.0781C119.65 11.1563 119.865 11.2148 120.061 11.2539C120.256 11.293 120.393 11.4102 120.471 11.6055C120.822 11.5664 121.076 11.6055 121.232 11.7227C121.428 11.8398 121.682 11.8984 121.994 11.8984C122.268 11.5469 122.385 11.0781 122.346 10.4922C122.307 9.90625 122.307 9.28125 122.346 8.61719C122.424 8.26562 122.443 8.01172 122.404 7.85547C122.365 7.69922 122.326 7.54297 122.287 7.38672C122.209 6.80078 122.229 6.25391 122.346 5.74609C122.385 5.62891 122.424 5.51172 122.463 5.39453C122.502 5.23828 122.521 5.10156 122.521 4.98438C122.521 4.67187 122.463 4.39844 122.346 4.16406C122.346 3.92969 122.307 3.75391 122.229 3.63672C122.189 3.51953 122.131 3.42188 122.053 3.34375C122.014 3.26562 121.975 3.20703 121.936 3.16797C121.896 3.08984 121.896 2.97266 121.936 2.81641C122.209 2.54297 122.404 2.42578 122.521 2.46484C122.639 2.46484 122.795 2.46484 122.99 2.46484C123.303 2.38672 123.557 2.32812 123.752 2.28906C123.986 2.25 124.279 2.26953 124.631 2.34766C124.982 2.26953 125.256 2.26953 125.451 2.34766C125.646 2.38672 125.861 2.42578 126.096 2.46484C126.252 2.42578 126.389 2.36719 126.506 2.28906C126.623 2.21094 126.74 2.15234 126.857 2.11328C126.975 2.19141 127.131 2.21094 127.326 2.17188C127.521 2.09375 127.658 2.13281 127.736 2.28906C127.932 2.5625 128.068 2.73828 128.146 2.81641C128.225 2.85547 128.264 2.91406 128.264 2.99219C128.342 3.30469 128.342 3.75391 128.264 4.33984C128.225 4.88672 128.186 5.375 128.146 5.80469C128.186 6 128.205 6.19531 128.205 6.39062C128.205 6.54687 128.205 6.72266 128.205 6.91797C128.205 7.03516 128.186 7.19141 128.146 7.38672C128.107 7.58203 128.088 7.71875 128.088 7.79688C128.205 8.14844 128.244 8.42187 128.205 8.61719C128.205 8.77344 128.225 8.89062 128.264 8.96875C128.303 9.24219 128.361 9.49609 128.439 9.73047C128.518 9.92578 128.42 10.1602 128.146 10.4336C128.225 10.668 128.244 10.9023 128.205 11.1367C128.166 11.332 128.127 11.5664 128.088 11.8398C128.088 11.957 128.088 12.0938 128.088 12.25C128.127 12.4062 128.146 12.543 128.146 12.6602C128.146 12.8555 128.107 13.0313 128.029 13.1875C127.951 13.3437 127.951 13.5195 128.029 13.7148C128.342 13.7539 128.615 13.6953 128.85 13.5391C129.084 13.3828 129.318 13.2656 129.553 13.1875C129.787 13.1094 130.021 13.0898 130.256 13.1289C130.529 13.1289 130.783 13.0313 131.018 12.8359C131.213 12.9922 131.428 12.9922 131.662 12.8359C131.896 12.6797 132.092 12.7188 132.248 12.9531C132.443 12.7188 132.775 12.543 133.244 12.4258C133.713 12.3086 134.104 12.3086 134.416 12.4258C134.572 12.7383 134.689 12.9531 134.768 13.0703C134.846 13.1484 134.904 13.2266 134.943 13.3047C134.982 13.3828 134.982 13.5 134.943 13.6562C134.904 13.7734 134.904 13.9102 134.943 14.0664C135.021 14.3789 135.041 14.5938 135.002 14.7109C135.002 14.7891 135.002 14.8672 135.002 14.9453C135.041 15.2187 135.1 15.4727 135.178 15.707C135.256 15.9414 135.314 16.1562 135.354 16.3516L135.412 16.7617ZM168.342 12.7773C168.303 12.8945 168.244 13.0117 168.166 13.1289C168.127 13.2461 168.088 13.3828 168.049 13.5391C167.932 13.7344 167.854 13.9102 167.814 14.0664C167.775 14.2227 167.717 14.418 167.639 14.6523C167.482 14.9648 167.385 15.1992 167.346 15.3555C167.346 15.5117 167.307 15.6484 167.229 15.7656C167.189 15.8438 167.131 15.9414 167.053 16.0586C167.014 16.1758 166.955 16.293 166.877 16.4102C166.721 16.6055 166.623 16.8203 166.584 17.0547C166.467 17.3672 166.35 17.6406 166.232 17.875C166.115 18.0703 166.057 18.2852 166.057 18.5195C165.744 18.9102 165.529 19.2422 165.412 19.5156C165.295 19.7891 165.139 19.9648 164.943 20.043C164.865 20.3945 164.768 20.7266 164.65 21.0391C164.533 21.3516 164.416 21.6445 164.299 21.918C164.182 22.2695 164.064 22.6016 163.947 22.9141C163.83 23.1875 163.713 23.4805 163.596 23.793C163.4 24.1445 163.283 24.418 163.244 24.6133C163.244 24.8086 163.225 24.9844 163.186 25.1406C162.99 25.5312 162.854 25.9219 162.775 26.3125C162.697 26.6641 162.58 27.0547 162.424 27.4844C162.307 27.7969 162.15 28.1094 161.955 28.4219C161.799 28.6953 161.623 28.9883 161.428 29.3008C161.271 29.7305 161.154 30.0039 161.076 30.1211C161.037 30.2383 160.998 30.3359 160.959 30.4141C160.881 30.6094 160.822 30.8047 160.783 31C160.783 31.1562 160.744 31.332 160.666 31.5273C160.432 31.957 160.275 32.2891 160.197 32.5234C160.158 32.7578 160.08 32.9727 159.963 33.168C159.729 33.5977 159.572 33.9688 159.494 34.2812C159.455 34.5938 159.318 34.8477 159.084 35.043C159.084 35.3555 159.045 35.6094 158.967 35.8047C158.889 35.9609 158.811 36.0781 158.732 36.1562C158.654 36.1953 158.576 36.293 158.498 36.4492C158.381 36.7227 158.303 37.0156 158.264 37.3281C158.225 37.6016 158.127 37.8555 157.971 38.0898C157.775 38.4023 157.6 38.7148 157.443 39.0273C157.326 39.3008 157.229 39.5742 157.15 39.8477C156.955 40.2383 156.799 40.6289 156.682 41.0195C156.564 41.3711 156.35 41.6836 156.037 41.957C156.115 42.1523 156.096 42.3281 155.979 42.4844C155.861 42.6406 155.783 42.7773 155.744 42.8945C155.588 43.207 155.49 43.4609 155.451 43.6562C155.412 43.8125 155.354 43.9688 155.275 44.125C155.197 44.2812 155.119 44.418 155.041 44.5352C154.963 44.6523 154.885 44.8086 154.807 45.0039C154.729 45.1602 154.65 45.3164 154.572 45.4727C154.533 45.5898 154.436 45.707 154.279 45.8242C154.201 46.2539 154.104 46.6055 153.986 46.8789C153.908 47.1914 153.771 47.5234 153.576 47.875C153.42 48.2266 153.322 48.5195 153.283 48.7539C153.244 49.0273 153.186 49.2617 153.107 49.457C153.029 49.6523 152.951 49.8281 152.873 49.9844C152.795 50.1797 152.717 50.3359 152.639 50.4531C152.482 50.8438 152.326 51.0977 152.17 51.2148C152.17 51.4883 152.111 51.7227 151.994 51.918C151.916 52.1133 151.838 52.3086 151.76 52.5039C151.682 52.6992 151.604 52.875 151.525 53.0312C151.486 53.2266 151.389 53.3828 151.232 53.5C151.271 53.9297 151.232 54.2812 151.115 54.5547C150.998 54.8281 150.9 55.1211 150.822 55.4336C150.744 55.6289 150.783 55.7266 150.939 55.7266C151.096 55.7266 151.154 55.8242 151.115 56.0195C151.076 56.293 151.018 56.5273 150.939 56.7227C150.861 56.918 150.842 57.1719 150.881 57.4844C150.686 57.5625 150.529 57.6797 150.412 57.8359C150.334 58.0312 150.217 58.207 150.061 58.3633C149.357 58.2461 148.635 58.2461 147.893 58.3633C147.189 58.4805 146.604 58.3828 146.135 58.0703C145.354 58.1484 144.572 58.0703 143.791 57.8359C143.049 57.6016 142.385 57.2891 141.799 56.8984C141.799 56.7031 141.76 56.5273 141.682 56.3711C141.604 56.2148 141.584 56.0586 141.623 55.9023C141.623 55.5898 141.721 55.2773 141.916 54.9648C142.15 54.6914 142.248 54.3398 142.209 53.9102C142.443 53.6758 142.639 53.4023 142.795 53.0898C142.951 52.7773 143.049 52.4062 143.088 51.9766C143.205 51.8203 143.283 51.6641 143.322 51.5078C143.4 51.3516 143.479 51.1953 143.557 51.0391C143.635 50.8828 143.674 50.7461 143.674 50.6289C143.713 50.5117 143.771 50.3945 143.85 50.2773C143.928 50.1602 144.025 49.8867 144.143 49.457C144.338 49.1836 144.455 48.9102 144.494 48.6367C144.533 48.4023 144.65 48.2461 144.846 48.168V47.4062C145.041 47.3281 145.139 47.1914 145.139 46.9961C145.139 46.8398 145.178 46.7031 145.256 46.5859C145.334 46.4688 145.412 46.3711 145.49 46.293C145.568 46.2539 145.646 46.1367 145.725 45.9414C145.803 45.8242 145.842 45.6875 145.842 45.5312C145.881 45.375 145.939 45.2383 146.018 45.1211C146.096 45.0039 146.154 44.8867 146.193 44.7695C146.271 44.6133 146.35 44.4766 146.428 44.3594C146.936 43.3828 147.502 42.5039 148.127 41.7227C148.127 41.3711 148.205 41.1172 148.361 40.9609C148.283 40.7656 148.186 40.5898 148.068 40.4336C147.99 40.2773 147.912 40.1016 147.834 39.9062C147.795 39.6328 147.697 39.418 147.541 39.2617C147.424 39.1055 147.404 38.9297 147.482 38.7344C147.326 38.6562 147.229 38.5586 147.189 38.4414C147.189 38.3242 147.131 38.2266 147.014 38.1484C147.014 37.7578 146.936 37.4258 146.779 37.1523C146.662 36.8789 146.623 36.5273 146.662 36.0977C146.467 36.0195 146.35 35.9414 146.311 35.8633C146.311 35.7852 146.271 35.707 146.193 35.6289C145.92 35.082 145.725 34.418 145.607 33.6367C145.568 33.4805 145.49 33.3633 145.373 33.2852C145.256 33.207 145.158 33.0703 145.08 32.875C145.002 32.6406 145.041 32.5039 145.197 32.4648C145.354 32.3867 145.432 32.25 145.432 32.0547C145.041 31.625 144.787 31.2539 144.67 30.9414C144.592 30.5898 144.475 30.2578 144.318 29.9453C144.162 29.7109 144.045 29.5156 143.967 29.3594C143.889 29.2031 143.811 29.0273 143.732 28.832C143.615 28.4414 143.518 28.1875 143.439 28.0703C143.4 27.9141 143.361 27.7969 143.322 27.7188C143.127 27.0547 142.951 26.5469 142.795 26.1953C142.639 25.8438 142.502 25.5117 142.385 25.1992C142.189 24.8086 142.033 24.457 141.916 24.1445C141.838 23.832 141.74 23.5586 141.623 23.3242C141.545 23.168 141.467 23.0312 141.389 22.9141C141.35 22.7578 141.291 22.6016 141.213 22.4453C141.135 22.25 141.076 22.0938 141.037 21.9766C140.998 21.8203 140.939 21.6445 140.861 21.4492C140.705 21.2539 140.607 21.0781 140.568 20.9219C140.568 20.7656 140.529 20.6094 140.451 20.4531C140.334 20.1797 140.197 19.8867 140.041 19.5742C139.924 19.2617 139.904 18.9102 139.982 18.5195C139.748 18.0508 139.494 17.582 139.221 17.1133C138.986 16.6445 138.83 16.0977 138.752 15.4727C138.557 15.2383 138.4 14.9648 138.283 14.6523C138.205 14.3398 138.088 14.0273 137.932 13.7148C137.814 13.5586 137.717 13.4219 137.639 13.3047C137.561 13.1875 137.482 13.0313 137.404 12.8359C137.326 12.6797 137.287 12.543 137.287 12.4258C137.287 12.3086 137.268 12.1523 137.229 11.957C137.463 11.6445 137.619 11.4297 137.697 11.3125C137.775 11.1563 137.873 11.0586 137.99 11.0195C138.42 10.9805 138.752 11.0195 138.986 11.1367C139.143 11.2148 139.416 11.3711 139.807 11.6055C140.197 11.8008 140.588 11.7812 140.979 11.5469C141.174 11.3906 141.33 11.3125 141.447 11.3125C141.604 11.2734 141.721 11.2344 141.799 11.1953L142.502 11.0195C142.658 10.9414 142.775 10.8828 142.854 10.8438C142.971 10.8047 143.088 10.8047 143.205 10.8438C143.557 10.9219 143.771 11.1758 143.85 11.6055C144.084 11.8008 144.221 11.9766 144.26 12.1328C144.338 12.25 144.416 12.3281 144.494 12.3672C144.572 12.7578 144.65 13.0313 144.729 13.1875C144.846 13.3047 144.943 13.4023 145.021 13.4805C145.1 13.793 145.275 14.1445 145.549 14.5352C145.705 14.9648 145.842 15.3555 145.959 15.707C146.076 16.0586 146.213 16.4297 146.369 16.8203C146.447 17.0156 146.506 17.2109 146.545 17.4062C146.584 17.5625 146.643 17.7383 146.721 17.9336C146.799 18.0898 146.877 18.2656 146.955 18.4609C147.072 18.6172 147.17 18.7734 147.248 18.9297C147.326 19.125 147.365 19.2812 147.365 19.3984C147.365 19.4766 147.404 19.6328 147.482 19.8672C147.561 20.1797 147.697 20.4922 147.893 20.8047C148.127 21.0781 148.322 21.3711 148.479 21.6836C148.674 22.1914 148.83 22.6211 148.947 22.9727C149.104 23.2852 149.24 23.5781 149.357 23.8516C149.553 24.2812 149.729 24.7695 149.885 25.3164C150.08 25.8633 150.275 26.3711 150.471 26.8398C150.588 27.0352 150.666 27.2305 150.705 27.4258C150.783 27.582 150.861 27.7578 150.939 27.9531C151.018 28.1484 151.096 28.3438 151.174 28.5391C151.291 28.6953 151.33 28.8906 151.291 29.125C151.604 29.5547 151.838 30.0625 151.994 30.6484C152.15 31.1953 152.404 31.6641 152.756 32.0547C153.146 31.625 153.42 31.1367 153.576 30.5898C153.771 30.0039 154.064 29.4961 154.455 29.0664C154.416 28.9492 154.416 28.8516 154.455 28.7734C154.494 28.6562 154.533 28.5391 154.572 28.4219C154.689 28.0703 154.787 27.7969 154.865 27.6016C155.021 27.2109 155.158 26.8398 155.275 26.4883C155.354 26.293 155.412 26.1172 155.451 25.9609C155.529 25.8047 155.607 25.6094 155.686 25.375C155.764 24.9844 155.92 24.5938 156.154 24.2031C156.428 23.8125 156.604 23.4023 156.682 22.9727C156.799 22.8945 156.877 22.7969 156.916 22.6797C156.955 22.5625 157.053 22.4648 157.209 22.3867C157.287 21.957 157.385 21.5664 157.502 21.2148C157.658 20.8242 157.834 20.4531 158.029 20.1016C158.107 19.7891 158.186 19.5156 158.264 19.2812C158.381 19.0078 158.557 18.7539 158.791 18.5195C158.713 18.3242 158.732 18.1484 158.85 17.9922C159.006 17.7969 159.123 17.6016 159.201 17.4062C159.201 17.0938 159.221 16.8984 159.26 16.8203C159.338 16.7031 159.377 16.625 159.377 16.5859C159.377 16.3906 159.416 16.2148 159.494 16.0586C159.533 15.9805 159.572 15.9219 159.611 15.8828C159.689 15.6484 159.748 15.4141 159.787 15.1797C159.826 14.9063 159.943 14.6719 160.139 14.4766C160.021 14.0469 160.061 13.6367 160.256 13.2461C160.412 12.8164 160.451 12.4258 160.373 12.0742C160.334 11.6836 160.393 11.332 160.549 11.0195C160.861 10.7461 161.135 10.6094 161.369 10.6094C161.604 10.5703 161.799 10.4922 161.955 10.375C162.502 10.6094 163.225 10.668 164.123 10.5508C164.982 10.4336 165.705 10.3945 166.291 10.4336C166.916 10.4336 167.521 10.4727 168.107 10.5508C168.342 10.8633 168.459 11.2148 168.459 11.6055C168.459 11.9961 168.42 12.3867 168.342 12.7773Z" fill="black"/>
</svg>
